<?xml version="1.0" encoding="UTF-8"?>
<svg width="1024px" height="431px" viewBox="0 0 1024 431" version="1.1" xmlns="http://www.w3.org/2000/svg" xmlns:xlink="http://www.w3.org/1999/xlink">
    <!-- Generator: Sketch 52.6 (67491) - http://www.bohemiancoding.com/sketch -->
    <title>2D Illustration</title>
    <desc>Created with Sketch.</desc>
    <defs>
        <linearGradient x1="50.6603981%" y1="-5.4728622%" x2="50.5479652%" y2="54.6029905%" id="linearGradient-1">
            <stop stop-color="#CCDBF0" stop-opacity="0.490625" offset="0%"></stop>
            <stop stop-color="#FFFFFF" stop-opacity="0.107745" offset="100%"></stop>
        </linearGradient>
        <radialGradient cx="8.76543758%" cy="141.027903%" fx="8.76543758%" fy="141.027903%" r="996.325435%" gradientTransform="translate(0.087654,1.410279),scale(0.111224,1.000000),translate(-0.087654,-1.410279)" id="radialGradient-2">
            <stop stop-color="#293A68" stop-opacity="0" offset="0%"></stop>
            <stop stop-color="#132145" stop-opacity="0.701961" offset="56%"></stop>
            <stop stop-color="#0A1636" offset="100%"></stop>
        </radialGradient>
        <radialGradient cx="-14.2159147%" cy="214.90523%" fx="-14.2159147%" fy="214.90523%" r="1518.24953%" gradientTransform="translate(-0.142159,2.149052),scale(0.091374,1.000000),translate(0.142159,-2.149052)" id="radialGradient-3">
            <stop stop-color="#293A68" stop-opacity="0" offset="0%"></stop>
            <stop stop-color="#132145" stop-opacity="0.701961" offset="56%"></stop>
            <stop stop-color="#0A1636" offset="100%"></stop>
        </radialGradient>
        <linearGradient x1="-8.61868358e-05%" y1="49.9976754%" x2="99.9999138%" y2="49.9976754%" id="linearGradient-4">
            <stop stop-color="#B9D4FF" offset="0%"></stop>
            <stop stop-color="#AACEFD" offset="100%"></stop>
        </linearGradient>
        <linearGradient x1="48.8315015%" y1="34.3630679%" x2="48.8627121%" y2="80.7049824%" id="linearGradient-5">
            <stop stop-color="#D8E6F3" offset="0%"></stop>
            <stop stop-color="#BBCBE7" offset="100%"></stop>
        </linearGradient>
        <linearGradient x1="53.4796068%" y1="-1.37057433%" x2="53.0433661%" y2="103.976442%" id="linearGradient-6">
            <stop stop-color="#DFE4F1" offset="0%"></stop>
            <stop stop-color="#EFEFEF" offset="100%"></stop>
        </linearGradient>
        <path d="M76.5511358,5.07602829 C76.5511358,2.40120515 74.3781536,0.229350051 71.7017842,0.229350051 L5.22960022,0.229350051 C2.55323089,0.229350051 0.380248671,2.40120515 0.380248671,5.07602829 L0.380248671,37.497037 C0.380248671,40.1718601 2.55323089,42.3434275 5.22960022,42.3434275 L71.7017842,42.3434275 C74.3781536,42.3434275 76.5511358,40.1718601 76.5511358,37.497037 L76.5511358,5.07602829 Z" id="path-7"></path>
        <filter x="-24.9%" y="-40.4%" width="149.9%" height="190.2%" filterUnits="objectBoundingBox" id="filter-8">
            <feMorphology radius="1" operator="dilate" in="SourceAlpha" result="shadowSpreadOuter1"></feMorphology>
            <feOffset dx="0" dy="2" in="shadowSpreadOuter1" result="shadowOffsetOuter1"></feOffset>
            <feGaussianBlur stdDeviation="5" in="shadowOffsetOuter1" result="shadowBlurOuter1"></feGaussianBlur>
            <feColorMatrix values="0 0 0 0 0.595078656   0 0 0 0 0.595078656   0 0 0 0 0.595078656  0 0 0 0.5 0" type="matrix" in="shadowBlurOuter1"></feColorMatrix>
        </filter>
        <polygon id="path-9" points="69.9726289 20.5152076 13.8380943 14.4637081 8.62390693 52.0986996 62.8728874 63.0027863 69.9726289 20.5152076"></polygon>
        <filter x="-39.1%" y="-47.4%" width="158.7%" height="174.2%" filterUnits="objectBoundingBox" id="filter-10">
            <feOffset dx="-6" dy="-5" in="SourceAlpha" result="shadowOffsetOuter1"></feOffset>
            <feGaussianBlur stdDeviation="5" in="shadowOffsetOuter1" result="shadowBlurOuter1"></feGaussianBlur>
            <feComposite in="shadowBlurOuter1" in2="SourceAlpha" operator="out" result="shadowBlurOuter1"></feComposite>
            <feColorMatrix values="0 0 0 0 0.891445395   0 0 0 0 0.947017437   0 0 0 0 0.969148597  0 0 0 0.5 0" type="matrix" in="shadowBlurOuter1"></feColorMatrix>
        </filter>
        <linearGradient x1="-70.6339281%" y1="146.176386%" x2="163.200465%" y2="-17.8103355%" id="linearGradient-11">
            <stop stop-color="#293A68" stop-opacity="0.00470588" offset="0%"></stop>
            <stop stop-color="#243460" stop-opacity="0.0345098" offset="64%"></stop>
            <stop stop-color="#18264C" stop-opacity="0.112157" offset="83%"></stop>
            <stop stop-color="#0A1636" stop-opacity="0.2" offset="100%"></stop>
        </linearGradient>
        <linearGradient x1="-7.32776802%" y1="69.2902918%" x2="83.2780697%" y2="23.6662233%" id="linearGradient-12">
            <stop stop-color="#293A68" stop-opacity="0.360784" offset="0%"></stop>
            <stop stop-color="#0A1636" offset="100%"></stop>
        </linearGradient>
        <linearGradient x1="33.7933285%" y1="83.8942367%" x2="97.7260058%" y2="3.05281844%" id="linearGradient-13">
            <stop stop-color="#CCDBF0" offset="0%"></stop>
            <stop stop-color="#CFDEF4" stop-opacity="0.886275" offset="75.8896315%"></stop>
            <stop stop-color="#D6E7FF" stop-opacity="0.588235" offset="100%"></stop>
        </linearGradient>
    </defs>
    <g id="WMS-Landing" stroke="none" stroke-width="1" fill="none" fill-rule="evenodd">
        <g id="Landing-Alpha" transform="translate(0.000000, -121.000000)">
            <g id="2D-Illustration" transform="translate(0.000000, 121.000000)">
                <g id="Laptop-&amp;-Background" transform="translate(0.532640, 0.146026)">
                    <path d="M87.0534971,246.626581 C143.321738,245.658346 227.62198,229.469266 272.357615,214.530646 C387.291544,176.15126 529.148526,150.604506 692.313777,148.181779 C899.133506,145.111221 997.62999,188.089267 1022.93565,200.644867 C1021.76509,239.222177 1023.46736,424.854868 1022.93565,429.976784 L0.264590755,427.566302 L3.47245323,240.253638 C3.47390689,240.253638 15.1366148,247.864212 87.0534971,246.626581 Z" id="Path" fill="url(#linearGradient-1)"></path>
                    <g id="Shadow2" transform="translate(480.196473, 152.951556)" fill="url(#radialGradient-2)">
                        <path d="M120.733462,0.0854417745 C120.733462,0.0854417745 23.9378975,19.1794159 7.49663875,29.2184251 C-6.38715007,37.6960591 1.09723797,41.1696266 15.9469691,40.9111719 C53.024025,40.2662329 210.64439,44.3006285 256.306801,44.451549 C265.460215,44.4816266 280.859364,42.9293013 292.21631,41.7999261 C316.827997,39.3524584 399.044944,24.3812495 399.044944,24.3812495 L363.316265,2.310122 L120.733462,0.0854417745 Z" id="Path"></path>
                    </g>
                    <g id="Shadow1" transform="translate(560.358762, 152.951556)" fill="url(#radialGradient-3)">
                        <path d="M40.571173,0.0854417745 C40.571173,0.0854417745 30.7721987,10.8332717 13.0123901,18.2991793 C-13.147148,29.2961479 6.97624967,28.1114085 19.7433592,28.6198004 C56.7967126,30.0954677 176.523751,28.2216044 209.925593,28.7994677 C293.220869,30.2402662 318.882655,24.3812495 318.882655,24.3812495 L283.153977,2.310122 L40.571173,0.0854417745 Z" id="Path"></path>
                    </g>
                    <g id="Laptop-Body" transform="translate(569.679958, 0.167823)">
                        <path d="M282.562746,153.065612 L30.8960375,152.865183 L1.66476567,158.687738 C1.66476567,158.687738 302.094914,158.690396 310.667751,158.566625 C306.729146,157.602543 282.561947,153.065612 282.561947,153.065612 L282.562746,153.065612 Z" id="Path" fill="url(#linearGradient-4)"></path>
                        <path d="M312.410422,160.269072 C312.410422,159.801937 312.224868,159.353701 311.89419,159.023379 C311.563512,158.692791 311.11529,158.507268 310.647789,158.507268 C286.74982,158.507268 27.5018504,158.507268 2.26590769,158.507268 C1.17641113,158.507268 0.293086193,159.390166 0.293086193,160.479083 C0.293086193,163.197516 0.293086193,168.221279 0.293086193,172.277501 C0.293086193,173.931505 0.950693358,175.5179 2.12078428,176.687468 C3.29114296,177.857035 4.87839674,178.514218 6.53339262,178.514218 C46.5191748,178.514218 266.375511,178.514218 306.21858,178.514218 C309.638619,178.514218 312.411226,175.743083 312.411226,172.32488 C312.411226,168.153937 312.411226,162.942521 312.411226,160.269072 L312.410422,160.269072 Z" id="Path" fill="url(#linearGradient-5)"></path>
                        <path d="M282.581265,8.57954272 C282.581265,4.01935168 278.882446,0.322688578 274.319737,0.322688578 C236.190247,0.322688578 77.4376149,0.322688578 38.978231,0.322688578 C36.745333,0.322688578 34.6040724,1.20923643 33.0254099,2.78694349 C31.4464698,4.36493129 30.5595308,6.50522287 30.5595308,8.73675196 C30.5595308,40.7403433 30.5595308,153.092457 30.5595308,153.092457 L282.581265,153.092457 C282.581265,153.092457 282.581265,40.3703401 282.581265,8.57954272 Z" id="Path" fill="#CDD9E9"></path>
                        <path d="M281.081749,7.72145776 C281.081476,4.90785235 278.79955,2.62711443 275.984255,2.62711443 C243.94435,2.62711443 70.6746682,2.62711443 38.2110194,2.62711443 C35.3156232,2.62711443 32.9683593,4.97286923 32.9683593,7.86693302 C32.9683593,34.1147886 32.9683593,150.049093 32.9683593,150.049093 L281.081749,150.049093 C281.081749,150.049093 281.081749,33.6837809 281.081749,7.72145776 Z" id="Path" fill-opacity="0.2625" fill="#F4F5F6"></path>
                        <g id="Group" transform="translate(36.018481, 5.325302)">
                            <path d="M241.575072,5.4708571 C241.575072,4.1197475 241.037831,2.82407197 240.082116,1.86866453 C239.126136,0.913257103 237.82953,0.376542929 236.47766,0.376542929 C205.017715,0.376542929 37.5545203,0.376542929 5.6787585,0.376542929 C4.28836205,0.376542929 2.95482493,0.928584495 1.97174317,1.91107032 C0.988661412,2.8938116 0.436275743,4.22652833 0.436275743,5.61621186 C0.436275743,28.9700481 0.436275743,123.059287 0.436275743,137.522214 C0.436275743,138.018311 0.63342349,138.493971 0.98414455,138.844713 C1.33513131,139.195454 1.81099602,139.392411 2.30731946,139.392411 C23.518504,139.392411 218.331831,139.392411 239.678787,139.392411 C240.726168,139.392411 241.575072,138.54404 241.575072,137.497435 C241.575072,122.921085 241.575072,28.5638722 241.575072,5.4708571 Z" id="Path" fill="#F4F5F6"></path>
                            <path d="M236.542756,0.177286833 L236.608383,0.178564116 L236.674011,0.180607768 L236.739638,0.18341779 L236.805,0.186994182 L236.870361,0.191592399 L236.935457,0.19670153 L237.000288,0.202832487 L237.065384,0.209729813 L237.129948,0.217138052 L237.194778,0.225568118 L237.259077,0.234764553 L237.323376,0.244982815 L237.387409,0.255711989 L237.451442,0.267207533 L237.51521,0.279469446 L237.578712,0.292753186 L237.641948,0.306547839 L237.705184,0.321108861 L237.767889,0.336436253 L237.830859,0.352785471 L237.893298,0.369645602 L237.955471,0.387272103 L238.017379,0.405664973 L238.079286,0.424824213 L238.140662,0.444749823 L238.202039,0.465441802 L238.262883,0.486900151 L238.323728,0.509124869 L238.384042,0.5318605 L238.444089,0.555617958 L238.503871,0.579886328 L238.563653,0.604921069 L238.622638,0.630722178 L238.681623,0.657289658 L238.740342,0.68436805 L238.79853,0.712468269 L238.856452,0.7410794 L238.914109,0.770456902 L238.971234,0.800600772 L239.028093,0.831255556 L239.084687,0.862932166 L239.140749,0.895119689 L239.196545,0.927818125 L239.251811,0.961538388 L239.30681,0.995769563 L239.361544,1.03076711 L239.415746,1.06627557 L239.469417,1.10255039 L239.522822,1.13959159 L239.575696,1.17739916 L239.628304,1.21571764 L239.680381,1.25480249 L239.731926,1.29439825 L239.783206,1.33476038 L239.833954,1.37588888 L239.884171,1.4175283 L239.933857,1.45967863 L239.983277,1.50285078 L240.032165,1.54653385 L240.080522,1.59072783 L240.128348,1.63568818 L240.175642,1.68115944 L240.222405,1.72739707 L240.268636,1.77414562 L240.314336,1.82166053 L240.359239,1.8694309 L240.40361,1.91771219 L240.447185,1.96650439 L240.490228,2.0158075 L240.532474,2.06562152 L240.574454,2.115691 L240.615372,2.16652685 L240.655758,2.21761816 L240.695347,2.26922038 L240.734404,2.32133351 L240.77293,2.3737021 L240.810659,2.4265816 L240.847591,2.47997202 L240.883992,2.53387334 L240.919596,2.58803013 L240.954668,2.64244237 L240.988943,2.69762098 L241.022421,2.75279959 L241.055367,2.80848912 L241.087516,2.86468955 L241.119135,2.92114545 L241.149955,2.97811225 L241.179979,3.03533452 L241.209206,3.09281224 L241.237901,3.15054541 L241.266065,3.2087895 L241.293167,3.26754451 L241.319736,3.32629951 L241.345509,3.38556542 L241.37075,3.4450868 L241.394929,3.50486362 L241.418576,3.56489591 L241.441692,3.62543911 L241.463745,3.68598231 L241.485,3.74678096 L241.50599,3.80809053 L241.525652,3.86965555 L241.545048,3.93122058 L241.563381,3.99304106 L241.581183,4.05537245 L241.597922,4.1179593 L241.614129,4.18054615 L241.62954,4.24338846 L241.644153,4.30648622 L241.65797,4.36983944 L241.671255,4.43319266 L241.683477,4.4970568 L241.695167,4.56092093 L241.705795,4.62504052 L241.715892,4.68916011 L241.725191,4.75353515 L241.733428,4.81816566 L241.741133,4.88279616 L241.748041,4.94768212 L241.754152,5.01256808 L241.7592,5.07770949 L241.763717,5.14310637 L241.767437,5.20850324 L241.77036,5.27390011 L241.77222,5.33955244 L241.773548,5.40520477 L241.773814,5.47034618 L241.773814,137.497946 L241.773814,137.524513 L241.773282,137.551336 L241.77222,137.578415 L241.771157,137.604727 L241.769563,137.63155 L241.767703,137.658372 L241.765577,137.684685 L241.763186,137.711252 L241.760263,137.737819 L241.757075,137.764132 L241.753621,137.790188 L241.749635,137.815989 L241.74565,137.842301 L241.741133,137.867847 L241.73635,137.893648 L241.731302,137.919194 L241.725988,137.944739 L241.720143,137.970285 L241.714298,137.995575 L241.707921,138.020865 L241.701278,138.0459 L241.69437,138.070679 L241.687196,138.095714 L241.679757,138.119982 L241.671786,138.144762 L241.663815,138.16903 L241.655313,138.193554 L241.646545,138.217567 L241.637777,138.24158 L241.628477,138.265593 L241.618912,138.289095 L241.609081,138.312852 L241.598985,138.336099 L241.588622,138.359345 L241.577995,138.382336 L241.567101,138.405583 L241.555942,138.428574 L241.544517,138.451054 L241.532826,138.473534 L241.52087,138.496014 L241.508647,138.518239 L241.49616,138.539953 L241.483406,138.561922 L241.470387,138.583892 L241.457102,138.605094 L241.443552,138.626553 L241.429735,138.647756 L241.415919,138.668448 L241.401571,138.689395 L241.387224,138.710087 L241.372345,138.730524 L241.357465,138.750705 L241.342321,138.770886 L241.326644,138.790811 L241.311234,138.810226 L241.295292,138.829896 L241.279085,138.849311 L241.262877,138.868215 L241.246138,138.887118 L241.229399,138.905767 L241.212394,138.92416 L241.195124,138.942808 L241.177588,138.96069 L241.160052,138.978572 L241.14225,138.996198 L241.124183,139.013569 L241.10585,139.03094 L241.087251,139.048056 L241.068652,139.064661 L241.049787,139.08101 L241.030657,139.097359 L241.011261,139.113708 L240.991865,139.129547 L240.971938,139.145385 L240.952276,139.160457 L240.932349,139.175784 L240.91189,139.190856 L240.891432,139.205417 L240.870707,139.219978 L240.849983,139.234284 L240.828993,139.248078 L240.808002,139.261873 L240.786481,139.275412 L240.764959,139.288696 L240.743438,139.301724 L240.721651,139.314242 L240.699332,139.327015 L240.677013,139.339021 L240.654961,139.351027 L240.632376,139.362778 L240.609526,139.374274 L240.586676,139.385259 L240.563826,139.396243 L240.54071,139.406972 L240.517329,139.417191 L240.493948,139.427409 L240.470566,139.437116 L240.446653,139.446568 L240.422741,139.45602 L240.398828,139.464961 L240.374649,139.473391 L240.350205,139.481821 L240.325761,139.489996 L240.301317,139.497915 L240.276607,139.505323 L240.251897,139.512476 L240.226656,139.519373 L240.20168,139.526015 L240.176439,139.532402 L240.151198,139.538277 L240.125691,139.544153 L240.100184,139.549517 L240.074677,139.554626 L240.048904,139.559225 L240.022866,139.563823 L239.997093,139.56791 L239.971054,139.571742 L239.94475,139.575318 L239.918446,139.578384 L239.892142,139.581194 L239.865838,139.583748 L239.839268,139.586047 L239.812433,139.587836 L239.785863,139.589368 L239.758762,139.59039 L239.731926,139.591412 L239.705091,139.591923 L239.678787,139.591923 L2.30599097,139.591923 L2.28074968,139.591923 L2.25524269,139.591412 L2.22947001,139.590646 L2.20369733,139.589368 L2.17819034,139.588091 L2.15268335,139.586303 L2.12744207,139.584259 L2.10193508,139.58196 L2.07642809,139.57915 L2.05118681,139.57634 L2.02594552,139.573019 L2.00070423,139.569443 L1.97572864,139.565356 L1.95048735,139.561268 L1.92551176,139.55667 L1.90080187,139.551816 L1.87582628,139.546707 L1.85085068,139.541343 L1.82640649,139.535723 L1.8016966,139.529592 L1.7772524,139.523205 L1.75280821,139.516563 L1.72862971,139.509666 L1.70418551,139.502513 L1.68000702,139.495105 L1.65609422,139.487186 L1.63218142,139.479267 L1.60826862,139.470837 L1.58462152,139.462151 L1.56097441,139.45321 L1.53759301,139.444014 L1.51421161,139.434562 L1.4908302,139.424599 L1.4674488,139.414636 L1.44459879,139.404162 L1.42174878,139.393689 L1.39889877,139.382704 L1.37631446,139.371464 L1.35373015,139.359968 L1.33141154,139.348217 L1.30909293,139.336211 L1.28704001,139.323949 L1.2649871,139.311176 L1.24346558,139.298403 L1.22167836,139.285375 L1.20015684,139.271836 L1.17890102,139.258297 L1.1576452,139.244247 L1.13665507,139.229941 L1.11566495,139.215636 L1.09520622,139.200819 L1.07448179,139.186003 L1.05402306,139.170675 L1.03409573,139.155092 L1.0139027,139.139254 L0.994241065,139.123416 L0.974313732,139.107066 L0.954917795,139.090462 L0.935787555,139.073602 L0.916657316,139.056742 L0.897792774,139.039371 L0.87919393,139.021744 L0.860595086,139.003862 L0.842261939,138.985725 L0.824194491,138.967587 L0.80639274,138.948939 L0.788856687,138.930291 L0.771586332,138.911642 L0.754315977,138.892228 L0.737577017,138.873068 L0.721103755,138.853654 L0.704630493,138.833983 L0.688688627,138.814058 L0.67274676,138.794132 L0.65733629,138.773951 L0.641925819,138.75377 L0.627046744,138.733078 L0.612433366,138.712386 L0.597819989,138.691694 L0.583738007,138.670491 L0.569656025,138.649544 L0.556105438,138.628085 L0.542554852,138.606627 L0.529535661,138.584913 L0.51651647,138.5632 L0.504028675,138.54123 L0.491806577,138.519261 L0.47958448,138.497036 L0.467893778,138.474556 L0.456468773,138.452076 L0.445309467,138.42934 L0.434150161,138.406605 L0.42352225,138.383869 L0.413160037,138.360878 L0.403063521,138.337631 L0.393498401,138.314385 L0.383933282,138.291138 L0.374633859,138.267381 L0.365600135,138.243879 L0.357097806,138.220121 L0.348595478,138.196364 L0.340358847,138.172351 L0.332653611,138.148338 L0.325214074,138.124325 L0.318040234,138.100057 L0.311132092,138.075788 L0.304489648,138.051265 L0.298112901,138.026741 L0.29226755,138.002217 L0.286422199,137.977693 L0.280842546,137.952658 L0.275794288,137.927879 L0.271011728,137.9031 L0.266494866,137.878065 L0.262243702,137.85303 L0.258258235,137.827996 L0.254804164,137.802705 L0.251615791,137.777671 L0.248427417,137.752381 L0.24577044,137.726835 L0.24337916,137.701289 L0.241519275,137.675999 L0.239659391,137.650453 L0.238330902,137.624908 L0.237268111,137.599362 L0.23620532,137.573816 L0.235939622,137.548015 L0.235673924,137.522725 L0.235673924,5.61595641 L0.235673924,5.5824916 L0.23620532,5.54851588 L0.236736715,5.51479562 L0.237268111,5.48133081 L0.238330902,5.4473551 L0.239393693,5.41389029 L0.240722182,5.38017003 L0.242316369,5.34644977 L0.244176253,5.31298496 L0.246036138,5.27952015 L0.248427417,5.24579989 L0.250818697,5.21233509 L0.253475675,5.17887028 L0.256132653,5.14515002 L0.262243702,5.07873132 L0.269417542,5.01205716 L0.277122777,4.94538301 L0.285890803,4.87921977 L0.295455923,4.81305653 L0.305552439,4.74689328 L0.316711745,4.68124096 L0.328668145,4.61558863 L0.34115594,4.55019175 L0.354706527,4.48479488 L0.369054206,4.41990892 L0.383933282,4.35502296 L0.399875148,4.29039246 L0.41634841,4.22601741 L0.433884463,4.16189783 L0.451951911,4.09803369 L0.470816453,4.03442502 L0.490743786,3.97081634 L0.511202515,3.90771858 L0.532458336,3.84487627 L0.554511252,3.78228942 L0.577095562,3.71995802 L0.600742664,3.65788209 L0.624921161,3.59606161 L0.649896752,3.53475204 L0.675669436,3.47344247 L0.702239213,3.41289927 L0.729606084,3.35210062 L0.75750435,3.29206833 L0.786199709,3.2322915 L0.815692162,3.17277013 L0.845981708,3.11375967 L0.87680265,3.05500467 L0.908420685,2.99650512 L0.940835813,2.93851649 L0.974048035,2.88078332 L1.00779165,2.82356105 L1.04233236,2.76659425 L1.07740447,2.71013835 L1.11353937,2.65419337 L1.15020566,2.59850385 L1.18740335,2.54332524 L1.22539813,2.48840208 L1.26419,2.43398984 L1.30351327,2.38008851 L1.34363364,2.3266981 L1.38455109,2.27356314 L1.42599995,2.22093909 L1.46824589,2.16908142 L1.51075754,2.11773465 L1.53281045,2.09167809 L1.55459767,2.06613243 L1.57665058,2.04084224 L1.5987035,2.01555204 L1.62102211,1.9905173 L1.64360642,1.96548256 L1.66619073,1.94070328 L1.68930644,1.91592399 L1.71215645,1.89114471 L1.73527215,1.86687634 L1.75865356,1.84235251 L1.78230066,1.81808414 L1.80594776,1.79407123 L1.82959486,1.77005831 L1.85377336,1.74630086 L1.87768616,1.7225434 L1.90213035,1.6990414 L1.92657455,1.67579485 L1.95101874,1.65254831 L1.97572864,1.62955722 L2.00043853,1.60682159 L2.02541412,1.58408596 L2.05038971,1.56160578 L2.0753653,1.53912561 L2.10060659,1.51690089 L2.12611358,1.49493163 L2.15162056,1.47321782 L2.17739325,1.45124856 L2.22893862,1.40858732 L2.28101538,1.36643699 L2.33362354,1.32505303 L2.38676309,1.28417999 L2.44016834,1.24432877 L2.49410499,1.20473301 L2.54857304,1.16615907 L2.60330678,1.12809605 L2.65857191,1.09079939 L2.71436845,1.05401365 L2.77043068,1.01824974 L2.8270243,0.982996736 L2.88388362,0.948510105 L2.94100865,0.914789842 L2.99893076,0.881580493 L3.05685287,0.84939297 L3.11530638,0.81771636 L3.17402559,0.78680612 L3.2332762,0.756662249 L3.2927925,0.727029291 L3.3525745,0.698418159 L3.41288789,0.670317941 L3.47320128,0.643239548 L3.53431177,0.616672069 L3.59542226,0.590870959 L3.65679845,0.565836219 L3.71870603,0.541567849 L3.78061361,0.518065848 L3.84305258,0.495330216 L3.90575726,0.473360954 L3.96846193,0.452158062 L4.031698,0.43172154 L4.09519977,0.412051387 L4.15896724,0.393147603 L4.2230004,0.375010189 L4.28703356,0.357639145 L4.35159812,0.341034471 L4.41616268,0.325196166 L4.48099294,0.31012423 L4.54608889,0.295818664 L4.61145054,0.282279468 L4.67681219,0.269762098 L4.74243954,0.257755641 L4.80833259,0.24677101 L4.87449134,0.236552749 L4.94065008,0.227100857 L5.00707453,0.218415335 L5.07349897,0.210496183 L5.14018911,0.203598856 L5.20661355,0.197212443 L5.24035717,0.194402421 L5.27383509,0.191847856 L5.30731301,0.189548747 L5.34105663,0.187249638 L5.37453455,0.185205986 L5.40827816,0.183673247 L5.44175608,0.181885051 L5.4754997,0.180607768 L5.50924332,0.179585942 L5.54298693,0.178564116 L5.57673055,0.177797747 L5.61047417,0.177286833 L5.64421779,0.177031377 L5.6776957,0.17677592 L236.477394,0.17677592 L236.542756,0.177286833 Z M5.6782271,0.57605448 L5.64660907,0.576309937 L5.61552243,0.576565394 L5.58417009,0.577076307 L5.55281775,0.57758722 L5.52173111,0.578609046 L5.49037877,0.579630872 L5.45902644,0.580908155 L5.4279398,0.582440894 L5.39685316,0.583973633 L5.36576652,0.585761829 L5.33467988,0.587805481 L5.30359324,0.59010459 L5.2725066,0.592403699 L5.24195136,0.594958264 L5.17951238,0.600833764 L5.1178705,0.607220177 L5.05622861,0.614628417 L4.99458673,0.622547569 L4.93347624,0.631488548 L4.87210006,0.64094044 L4.81125527,0.651158701 L4.75041048,0.662143332 L4.68956569,0.673894332 L4.62925229,0.686411702 L4.5689389,0.699439986 L4.5086255,0.713490095 L4.44884351,0.728051117 L4.38906151,0.743633966 L4.3298109,0.759727727 L4.2705603,0.776332402 L4.2113097,0.793958903 L4.15259049,0.812351773 L4.09413698,0.831255556 L4.03568347,0.850925709 L3.97776135,0.871362232 L3.91983924,0.892309667 L3.86244852,0.914023473 L3.8053235,0.936503648 L3.74819848,0.959750192 L3.69160485,0.983763106 L3.63527693,1.00828693 L3.5792147,1.03357713 L3.52315247,1.05937824 L3.46788733,1.08594572 L3.41262219,1.11327957 L3.35788845,1.14137979 L3.30342041,1.16999092 L3.24921806,1.19911296 L3.19554711,1.22925683 L3.14187616,1.25991162 L3.08900231,1.29107731 L3.03612845,1.32300938 L2.98378599,1.35570782 L2.93197492,1.38891717 L2.88016386,1.42289289 L2.82914988,1.45763497 L2.77813591,1.49263252 L2.72791903,1.52865189 L2.67796785,1.56518217 L2.62828237,1.60222337 L2.57912828,1.64003094 L2.53050559,1.67860487 L2.48214859,1.71743427 L2.4340573,1.75728549 L2.41041019,1.7772111 L2.38676309,1.79739216 L2.36338169,1.81782868 L2.34000028,1.83852066 L2.31661888,1.85921264 L2.29350317,1.87990462 L2.27038747,1.90085206 L2.24753746,1.92205495 L2.22442175,1.9435133 L2.20183744,1.96497165 L2.17925313,1.98668545 L2.15693452,2.00839926 L2.13435021,2.03036852 L2.11229729,2.05233778 L2.09024438,2.0745625 L2.06819146,2.09704267 L2.04640425,2.11926739 L2.02488273,2.14200302 L2.00336121,2.16473866 L1.98183969,2.18747429 L1.96084956,2.21046537 L1.93985944,2.23345646 L1.91886931,2.25670301 L1.89814489,2.27994955 L1.87768616,2.3031961 L1.85722743,2.32695355 L1.8370344,2.35045555 L1.81710707,2.37395756 L1.7772524,2.42198338 L1.73819483,2.47026467 L1.69966865,2.51905687 L1.66193957,2.56810452 L1.62474188,2.61766309 L1.58807559,2.66773257 L1.55220639,2.7180575 L1.51713428,2.76889335 L1.48232787,2.81998466 L1.44858426,2.87158688 L1.41510634,2.92344456 L1.38269121,2.97581315 L1.35054178,3.02843719 L1.31918944,3.08157215 L1.2886342,3.13496256 L1.25861035,3.18886389 L1.22938359,3.24302068 L1.20068823,3.29743292 L1.17252427,3.35210062 L1.1454231,3.40727923 L1.11858762,3.4627133 L1.09281494,3.51840282 L1.06757365,3.5743478 L1.04286376,3.63080369 L1.01895096,3.68751504 L0.995835252,3.74448185 L0.973516639,3.80170411 L0.951463724,3.85918183 L0.9304736,3.91691501 L0.910014871,3.97490364 L0.890353236,4.03314773 L0.871488694,4.09164728 L0.853155548,4.15040228 L0.835619495,4.20941274 L0.818880535,4.26867866 L0.802672971,4.32794457 L0.7872625,4.3877214 L0.772649123,4.44749823 L0.758567141,4.50778597 L0.74554795,4.56781825 L0.733060155,4.62836145 L0.721369453,4.68890465 L0.710210146,4.74995876 L0.699847933,4.81075742 L0.690548511,4.87181153 L0.681780485,4.9331211 L0.673543854,4.99468612 L0.666370014,5.05625114 L0.65972757,5.11807163 L0.654147916,5.18014756 L0.651490939,5.2110578 L0.649099659,5.24196804 L0.646974077,5.27287828 L0.644848494,5.30404398 L0.64298861,5.33520968 L0.641394423,5.36637538 L0.639800237,5.39754107 L0.638737446,5.42870677 L0.637674654,5.45987247 L0.636611863,5.49103816 L0.636080468,5.52245932 L0.635549072,5.55362501 L0.635283375,5.58479071 L0.635283375,5.61646732 L0.635283375,137.521703 L0.635283375,137.543162 L0.63581477,137.563854 L0.636346166,137.58429 L0.637143259,137.605238 L0.638471748,137.62593 L0.639800237,137.646366 L0.641394423,137.667058 L0.643254308,137.687495 L0.64537989,137.707676 L0.648036868,137.728112 L0.650693845,137.748804 L0.653616521,137.768985 L0.656804894,137.789422 L0.659993267,137.809603 L0.663713036,137.829528 L0.667698503,137.849709 L0.671683969,137.869891 L0.676200832,137.889561 L0.680717694,137.909742 L0.685500254,137.929412 L0.690814209,137.949082 L0.696128164,137.969008 L0.701707818,137.988678 L0.707553169,138.008092 L0.71339852,138.027763 L0.719775266,138.047177 L0.726417711,138.066337 L0.733060155,138.085496 L0.739968297,138.104655 L0.747407835,138.123814 L0.754581674,138.142718 L0.76228691,138.161622 L0.770257843,138.180526 L0.778494474,138.198919 L0.786731105,138.217567 L0.795499131,138.23596 L0.804267158,138.254353 L0.813300882,138.272745 L0.822600304,138.290883 L0.832165424,138.308765 L0.841730544,138.326902 L0.851827059,138.344529 L0.861923575,138.362411 L0.872285788,138.380037 L0.882913699,138.397408 L0.893807307,138.414779 L0.904700916,138.431895 L0.91612592,138.44901 L0.927550924,138.466126 L0.938975929,138.482731 L0.950932328,138.499591 L0.963154426,138.516196 L0.975376524,138.532545 L0.988130017,138.548894 L1.00088351,138.564988 L1.013637,138.581081 L1.02665619,138.596664 L1.04020678,138.612503 L1.05375737,138.628085 L1.06757365,138.643413 L1.08138993,138.65874 L1.09573761,138.673812 L1.11008529,138.688884 L1.12469867,138.703445 L1.13931205,138.718006 L1.15445682,138.732567 L1.1696016,138.746617 L1.18474637,138.760667 L1.20015684,138.774462 L1.21583301,138.788001 L1.23150918,138.801285 L1.24718535,138.814313 L1.26339291,138.827342 L1.27933478,138.840114 L1.29580804,138.852632 L1.3122813,138.864894 L1.32875456,138.877156 L1.34549352,138.888907 L1.36223248,138.900658 L1.37923714,138.912153 L1.3962418,138.923393 L1.41351215,138.934378 L1.43078251,138.945107 L1.44831856,138.955836 L1.46612031,138.966054 L1.48365636,138.976273 L1.50145811,138.986236 L1.51952556,138.995943 L1.53759301,139.005395 L1.55566046,139.014591 L1.57399361,139.023788 L1.59232675,139.032473 L1.6109256,139.041159 L1.62952444,139.049589 L1.64812328,139.057763 L1.66698783,139.065683 L1.68585237,139.073346 L1.70471691,139.080754 L1.72384715,139.087907 L1.74297739,139.09506 L1.76210763,139.101702 L1.78150357,139.108088 L1.8008995,139.114475 L1.82056114,139.120606 L1.83995708,139.126481 L1.85961871,139.131846 L1.87928035,139.13721 L1.89920768,139.142319 L1.91913501,139.147173 L1.93906235,139.151771 L1.95898968,139.156114 L1.97891701,139.160457 L1.99911004,139.164289 L2.01930307,139.167865 L2.0394961,139.171186 L2.05968913,139.174507 L2.08014786,139.177317 L2.10034089,139.180127 L2.12079962,139.182426 L2.14125835,139.18447 L2.16171708,139.186513 L2.1824415,139.188046 L2.20290023,139.189579 L2.22362466,139.190601 L2.24434909,139.191623 L2.26507351,139.192134 L2.28579794,139.192644 L2.30705376,139.192644 L239.677458,139.192644 L239.700043,139.192644 L239.722096,139.192134 L239.743883,139.191623 L239.76567,139.190601 L239.787192,139.189323 L239.808713,139.187791 L239.830235,139.186003 L239.851756,139.183959 L239.873012,139.18166 L239.894533,139.179105 L239.915524,139.176295 L239.936779,139.17323 L239.95777,139.169909 L239.97876,139.166332 L239.999218,139.162501 L240.020209,139.158413 L240.040933,139.153815 L240.061392,139.149217 L240.08185,139.144363 L240.102309,139.139254 L240.122502,139.134145 L240.142695,139.128525 L240.162623,139.122649 L240.18255,139.116518 L240.202477,139.110132 L240.222139,139.103746 L240.2418,139.096848 L240.261196,139.089951 L240.280858,139.082543 L240.300254,139.075134 L240.319119,139.067471 L240.338249,139.059552 L240.357379,139.051377 L240.375978,139.043202 L240.394842,139.034517 L240.413441,139.025576 L240.431774,139.016635 L240.450108,139.007438 L240.468441,138.997987 L240.486508,138.988279 L240.504576,138.978316 L240.522112,138.968354 L240.539913,138.95788 L240.557715,138.947406 L240.574985,138.936677 L240.592256,138.925692 L240.609261,138.914708 L240.626531,138.903212 L240.64327,138.891717 L240.660009,138.879966 L240.676482,138.868215 L240.69269,138.856208 L240.709163,138.843691 L240.72537,138.831173 L240.741312,138.818401 L240.756988,138.805628 L240.772665,138.7926 L240.788075,138.779571 L240.80322,138.766032 L240.81863,138.752237 L240.833775,138.738443 L240.848389,138.724648 L240.863002,138.710598 L240.877615,138.696292 L240.891963,138.681476 L240.906045,138.666915 L240.919861,138.652354 L240.933677,138.637282 L240.947494,138.62221 L240.960779,138.606883 L240.974064,138.5913 L240.987083,138.575717 L240.999836,138.559879 L241.012855,138.543785 L241.025078,138.527947 L241.037565,138.511597 L241.049787,138.494993 L241.061478,138.478643 L241.073435,138.462039 L241.08486,138.445179 L241.096285,138.428063 L241.107178,138.410947 L241.118072,138.393832 L241.128965,138.376205 L241.139328,138.358834 L241.14969,138.341208 L241.160052,138.32307 L241.169883,138.305188 L241.179448,138.287306 L241.188747,138.269169 L241.198312,138.250521 L241.207346,138.232383 L241.215849,138.21399 L241.224617,138.195087 L241.233119,138.176183 L241.24109,138.157024 L241.249061,138.13812 L241.256766,138.118961 L241.264206,138.099801 L241.271379,138.080387 L241.278553,138.060717 L241.285196,138.041046 L241.291838,138.021632 L241.298215,138.001706 L241.304326,137.981525 L241.310171,137.961599 L241.315751,137.941418 L241.321065,137.921237 L241.326113,137.900801 L241.330896,137.880364 L241.335678,137.860183 L241.339929,137.839491 L241.343915,137.818544 L241.3479,137.797596 L241.35162,137.776649 L241.354808,137.755957 L241.357997,137.734754 L241.36092,137.713296 L241.363311,137.692348 L241.365702,137.671145 L241.367562,137.649687 L241.369422,137.627973 L241.371016,137.606515 L241.372079,137.585056 L241.373142,137.562832 L241.373939,137.541118 L241.374204,137.519404 L241.37447,137.496669 L241.37447,5.47162347 L241.373939,5.41005844 L241.372876,5.34925979 L241.371016,5.28871659 L241.368359,5.22817339 L241.364905,5.16788565 L241.36092,5.10759791 L241.356137,5.04731017 L241.350292,4.98702242 L241.344181,4.92699014 L241.337007,4.86721331 L241.329301,4.80769194 L241.320799,4.74817057 L241.3115,4.68864919 L241.301669,4.62963874 L241.290775,4.57037282 L241.27935,4.51161782 L241.267394,4.45286282 L241.254375,4.39410781 L241.240824,4.33586372 L241.226742,4.27787509 L241.211597,4.21988646 L241.196187,4.16215328 L241.179714,4.10467556 L241.162709,4.0474533 L241.144907,3.99023104 L241.126574,3.93326423 L241.107444,3.87706379 L241.087516,3.8206079 L241.067058,3.76440746 L241.046068,3.70871794 L241.024015,3.65302841 L241.00143,3.59759435 L240.978315,3.54292665 L240.954668,3.48800349 L240.929958,3.43359125 L240.904716,3.37943447 L240.878944,3.32578859 L240.852374,3.27214272 L240.825273,3.21875231 L240.797375,3.16612826 L240.768945,3.11350422 L240.739718,3.06139108 L240.70996,3.00927795 L240.67967,2.95793119 L240.648584,2.90658443 L240.616966,2.85574858 L240.584551,2.80542364 L240.551604,2.75535416 L240.518126,2.70554013 L240.483851,2.65623702 L240.448779,2.60744483 L240.413441,2.55890808 L240.377306,2.51088226 L240.34064,2.46311188 L240.303177,2.41559697 L240.265182,2.36884842 L240.226656,2.32235534 L240.187598,2.27637316 L240.147743,2.2309019 L240.107357,2.18568609 L240.06644,2.1409812 L240.024991,2.09678722 L239.982745,2.05310415 L239.939968,2.009932 L239.896659,1.9670153 L239.852819,1.92486497 L239.808713,1.88322556 L239.764076,1.84235251 L239.718907,1.80199038 L239.673207,1.76239462 L239.627242,1.72305431 L239.580744,1.68448037 L239.533716,1.64667281 L239.486422,1.60937615 L239.438862,1.57284587 L239.390505,1.53657104 L239.342148,1.50106258 L239.292994,1.4663205 L239.24384,1.43208932 L239.194154,1.39862451 L239.143937,1.36567062 L239.093455,1.33322764 L239.042706,1.30155103 L238.991427,1.27064079 L238.939881,1.23998601 L238.887805,1.21035305 L238.835728,1.18123101 L238.78312,1.15287533 L238.730246,1.12503057 L238.676841,1.09769672 L238.623435,1.0713847 L238.569499,1.04558359 L238.515296,1.02029339 L238.460828,0.995769563 L238.406095,0.972012106 L238.351095,0.948765561 L238.29583,0.926285386 L238.240033,0.904316125 L238.184237,0.883113232 L238.128175,0.86267671 L238.071847,0.843006557 L238.015253,0.823847317 L237.958394,0.805454446 L237.901269,0.787827946 L237.843878,0.770712358 L237.786487,0.75436314 L237.728565,0.738780292 L237.670643,0.723708356 L237.612455,0.70940279 L237.554002,0.695863594 L237.495548,0.683090767 L237.436829,0.67108431 L237.377844,0.659588767 L237.318859,0.648859592 L237.259609,0.638896787 L237.200092,0.629700352 L237.140576,0.621270287 L237.080794,0.613351134 L237.021012,0.606453808 L236.960964,0.600067394 L236.900917,0.594447351 L236.840603,0.589593677 L236.78029,0.585506372 L236.719711,0.582185437 L236.659132,0.579630872 L236.598553,0.57758722 L236.537708,0.576565394 L236.476332,0.57605448 L5.6782271,0.57605448 Z" id="Shape" fill="#94ABDA"></path>
                        </g>
                    </g>
                    <g id="UI" transform="translate(636.066318, 27.945822)">
                        <g id="Group" transform="translate(87.388263, 27.327760)" fill="url(#linearGradient-6)">
                            <path d="M50.9922038,1.76663096 C50.9922038,0.80703055 50.2125355,0.0278713544 49.2524281,0.0278713544 L1.84442659,0.0278713544 C0.88413301,0.0278713544 0.104650959,0.80703055 0.104650959,1.76663096 L0.104650959,13.3977601 C0.104650959,14.3573605 0.88413301,15.1364164 1.84442659,15.1364164 L49.2524281,15.1364164 C50.2125355,15.1364164 50.9922038,14.3573605 50.9922038,13.3977601 L50.9922038,1.76663096 Z" id="Path"></path>
                        </g>
                        <g id="Group" transform="translate(144.149494, 0.272956)" fill="url(#linearGradient-6)">
                            <path d="M41.5156584,4.84322537 C41.5156584,2.2130018 39.3790817,0.0776895704 36.7476645,0.0776895704 L4.85319624,0.0776895704 C2.22162744,0.0776895704 0.085202308,2.2130018 0.085202308,4.84322537 L0.085202308,37.4265189 C0.085202308,40.0567425 2.22162744,42.191767 4.85319624,42.191767 L36.7476645,42.191767 C39.3790817,42.191767 41.5156584,40.0567425 41.5156584,37.4265189 L41.5156584,4.84322537 Z" id="Path"></path>
                        </g>
                        <g id="Group" transform="translate(87.388263, 0.309229)" fill="url(#linearGradient-6)">
                            <path d="M50.9922038,2.60011376 C50.9922038,1.18778131 49.8447675,0.0410208435 48.4316071,0.0410208435 L2.66524764,0.0410208435 C1.25208727,0.0410208435 0.104650959,1.18778131 0.104650959,2.60011376 L0.104650959,19.7187195 C0.104650959,21.1310519 1.25208727,22.2776604 2.66524764,22.2776604 L48.4316071,22.2776604 C49.8447675,22.2776604 50.9922038,21.1310519 50.9922038,19.7187195 L50.9922038,2.60011376 Z" id="Path"></path>
                        </g>
                        <g id="Group" transform="translate(0.135424, 53.313852)" fill="url(#linearGradient-6)">
                            <path d="M76.3275336,2.48511983 C76.3275336,1.1352499 75.2307295,0.0392066351 73.8802807,0.0392066351 L2.60389943,0.0392066351 C1.25317189,0.0392066351 0.156646487,1.1352499 0.156646487,2.48511983 L0.156646487,18.8466295 C0.156646487,20.1964994 1.25317189,21.2923975 2.60389943,21.2923975 L73.8802807,21.2923975 C75.2307295,21.2923975 76.3275336,20.1964994 76.3275336,18.8466295 L76.3275336,2.48511983 Z" id="Path"></path>
                        </g>
                        <g id="Group" transform="translate(0.135424, 80.508558)" fill="url(#linearGradient-6)">
                            <path d="M76.3275336,2.48511983 C76.3275336,1.1352499 75.2307295,0.0392066351 73.8802807,0.0392066351 L2.60389943,0.0392066351 C1.25317189,0.0392066351 0.156646487,1.1352499 0.156646487,2.48511983 L0.156646487,18.8466295 C0.156646487,20.1964994 1.25317189,21.2923975 2.60389943,21.2923975 L73.8802807,21.2923975 C75.2307295,21.2923975 76.3275336,20.1964994 76.3275336,18.8466295 L76.3275336,2.48511983 Z" id="Path"></path>
                        </g>
                        <g id="Group" transform="translate(87.290437, 53.263960)" fill="url(#linearGradient-6)">
                            <path d="M98.3747118,5.66501364 C98.3747118,2.58788575 95.8747497,0.0893744118 92.7960494,0.0893744118 L5.78055612,0.0893744118 C2.70149661,0.0893744118 0.201893763,2.58788575 0.201893763,5.66501364 L0.201893763,42.9622798 C0.201893763,46.0394077 2.70149661,48.537588 5.78055612,48.537588 L92.7960494,48.537588 C95.8747497,48.537588 98.3747118,46.0394077 98.3747118,42.9622798 L98.3747118,5.66501364 Z" id="Path"></path>
                        </g>
                        <g id="Card-Azul" transform="translate(0.007191, 0.121282)">
                            <g id="Path">
                                <use fill="black" fill-opacity="1" filter="url(#filter-8)" xlink:href="#path-7"></use>
                                <use fill="#1E4AC3" fill-rule="evenodd" xlink:href="#path-7"></use>
                                <use fill="#105AD9" fill-rule="evenodd" xlink:href="#path-7"></use>
                            </g>
                            <ellipse id="Oval" fill="#D2DCF3" cx="16.015952" cy="15.1725728" rx="9.45935143" ry="9.24544665"></ellipse>
                            <path d="M35.0343823,9.78687024 L64.3769758,9.78687024" id="Path" stroke="#D2DCF3" stroke-width="2" stroke-linecap="round"></path>
                            <path d="M35.0343823,16.7868702 L64.3769758,16.7868702" id="Path" stroke="#D2DCF3" stroke-width="2" stroke-linecap="round"></path>
                            <path d="M35.0343823,23.7868702 L64.3769758,23.7868702" id="Path" stroke="#D2DCF3" stroke-width="2" stroke-linecap="round"></path>
                            <path d="M8.80949477,33.5168702 L64.3758575,33.5153462" id="Path" stroke="#D2DCF3" stroke-width="2" stroke-linecap="round"></path>
                        </g>
                    </g>
                </g>
                <g id="Excel-Sheets" transform="translate(148.073862, 198.977819)">
                    <g id="Group" transform="translate(202.669441, 83.312384)">
                        <g transform="translate(33.093948, 32.370555) rotate(-41.428216) translate(-33.093948, -32.370555) translate(7.052114, 12.266388)" fill="#FFFFFF" id="Path">
                            <polygon points="50.0742758 4.63129575 0.41383699 0.0748403306 0.0483072076 37.7477018 51.9818598 40.0583603"></polygon>
                        </g>
                        <g transform="translate(33.093948, 32.370555) rotate(-41.428216) translate(-33.093948, -32.370555) translate(7.052114, 12.266388)" fill="#FFFFFF" id="Path">
                            <polygon points="50.0742758 4.63129575 0.41383699 0.0748403306 0.0483072076 37.7477018 51.9818598 40.0583603"></polygon>
                        </g>
                        <g transform="translate(22.986628, 21.517893) rotate(-41.428216) translate(-22.986628, -21.517893) translate(-2.347120, 16.235046)" fill="#2FA832" id="Path">
                            <polygon points="49.7595709 4.63129575 0.0991320548 0.0748403306 0.202827331 5.79645698 50.5378362 10.4650262 49.7595709 4.63129575"></polygon>
                        </g>
                        <polygon id="Path" fill="#D0D0D0" points="25.594141 28.8585582 10.3009873 40.3841479 9.49244005 39.3125323 24.7855938 27.7869427"></polygon>
                        <g transform="translate(11.851677, 35.228788)" fill="#D0D0D0" id="Path">
                            <polygon points="9.52013732 1.30425139 0.996569051 8.16594455 0.15419922 7.12041405 8.67776749 0.258987061 9.52013732 1.30425139"></polygon>
                        </g>
                        <g transform="translate(9.767708, 29.024584)" fill="#16D51A" id="Oval">
                            <ellipse cx="1.35370403" cy="1.21109057" rx="1.23226216" ry="1.19884658"></ellipse>
                        </g>
                        <g transform="translate(6.805278, 31.089829)" fill="#C8D80E" id="Oval">
                            <ellipse cx="1.35370403" cy="1.21109057" rx="1.23226216" ry="1.19884658"></ellipse>
                        </g>
                        <g transform="translate(3.842858, 33.155074)" fill="#D52A16" id="Oval">
                            <ellipse cx="1.35370403" cy="1.21109057" rx="1.23226216" ry="1.19884658"></ellipse>
                        </g>
                    </g>
                    <path d="M122.542029,11.3778657 C141.645256,11.6632983 155.478704,21.7281887 159.443176,26.1199525" id="Path" stroke-opacity="0.380392" stroke="#2D4DA0" stroke-width="2" stroke-linecap="round" transform="translate(140.992603, 18.748909) rotate(-11.860557) translate(-140.992603, -18.748909) "></path>
                    <path d="M139.669664,22.1721911 C144.672186,22.8674358 151.572376,25.5182689 156.430173,29.5432074" id="Path" stroke="#2D4DA0" stroke-width="2" stroke-linecap="round"></path>
                    <path d="M120.478027,4.5843145 C125.480573,5.2795611 132.380799,7.93040132 137.238621,11.9553505" id="Path" stroke="#2D4DA0" stroke-width="2" stroke-linecap="round" transform="translate(128.858324, 8.269833) rotate(-23.011385) translate(-128.858324, -8.269833) "></path>
                    <g id="SAP" transform="translate(184.980580, 52.729315) rotate(64.074754) translate(-184.980580, -52.729315) translate(145.480580, 13.729315)">
                        <polygon id="Path" fill="#FFFFFF" transform="translate(39.298268, 38.733247) rotate(-41.428216) translate(-39.298268, -38.733247) " points="69.9726289 20.5152076 13.8380943 14.4637081 8.62390693 52.0986996 62.8728874 63.0027863 69.9726289 20.5152076"></polygon>
                        <g id="Path" transform="translate(39.298268, 38.733247) rotate(-41.428216) translate(-39.298268, -38.733247) ">
                            <use fill="black" fill-opacity="1" filter="url(#filter-10)" xlink:href="#path-9"></use>
                            <path stroke="#D3DDE3" stroke-width="0.5" d="M69.6823739,20.7353656 L14.0524436,14.7382642 L8.90382899,51.899964 L62.668884,62.7067813 L69.6823739,20.7353656 Z" stroke-linejoin="square" fill="#FFFFFF" fill-rule="evenodd"></path>
                        </g>
                        <g id="SAP-Letters" transform="translate(49.626963, 21.566117) rotate(-34.004575) translate(-49.626963, -21.566117) translate(44.677235, 19.109177)" fill="#000000">
                            <path d="M2.18188144,1.04252047 C2.09447749,0.967574947 1.99977269,0.907229663 1.89776704,0.861449262 C1.79576139,0.81563351 1.68406253,0.792760986 1.56262919,0.792760986 C1.47035801,0.792760986 1.39145109,0.817719258 1.3258672,0.867671155 C1.2602833,0.917623051 1.22749135,0.986311327 1.22749135,1.07373598 C1.22749135,1.15698914 1.26271691,1.21839498 1.33316804,1.25791813 C1.40357793,1.29747664 1.53594191,1.34223184 1.73021874,1.39218374 C1.84191761,1.42131351 1.95361647,1.46087202 2.06531534,1.51082391 C2.17705546,1.56077581 2.27658624,1.62529259 2.36403144,1.70437425 C2.45143539,1.78345592 2.5230827,1.87816302 2.57893214,1.9884602 C2.63482282,2.09879273 2.66274754,2.22885149 2.66274754,2.37870718 C2.66274754,2.57851476 2.62145855,2.74919258 2.53888059,2.89074063 C2.45630262,3.03225333 2.3519046,3.146722 2.22560404,3.23414666 C2.09934472,3.32157131 1.95724628,3.38608809 1.79943244,3.427697 C1.64157736,3.46934126 1.48978569,3.49016338 1.34405745,3.49016338 C1.09149756,3.49016338 0.847475964,3.45060488 0.611910149,3.37152321 C0.376344335,3.29244155 0.173570469,3.18210901 0.00354730521,3.04059632 L0.571817351,2.41617994 C0.673823,2.50777609 0.784325682,2.58268626 0.903325397,2.64098115 C1.02232511,2.69924068 1.15221423,2.72837045 1.29307525,2.72837045 C1.39994813,2.72837045 1.48372228,2.70132643 1.54443894,2.64720304 C1.60515561,2.593115 1.63547269,2.52234097 1.63547269,2.43491632 C1.63547269,2.33084103 1.58692411,2.25487031 1.48978569,2.20700416 C1.39264728,2.15913801 1.24691903,2.10816092 1.0526422,2.05403753 C0.950677797,2.02490776 0.848672148,1.9884602 0.7466665,1.94476555 C0.644660851,1.90107089 0.5536271,1.84175081 0.473482751,1.76680529 C0.393338401,1.69189512 0.327754503,1.60135952 0.276772302,1.49519848 C0.225790102,1.38903744 0.200257754,1.25897868 0.200257754,1.1049515 C0.200257754,0.921794547 0.23911312,0.762570668 0.316823853,0.627279863 C0.394534586,0.491989059 0.49534405,0.37960613 0.619169751,0.290095726 C0.743036699,0.200620673 0.881464098,0.134018145 1.03445195,0.0902881408 C1.1874398,0.0465934885 1.34166508,0.0247461623 1.49708654,0.0247461623 C1.73021874,0.0247461623 1.95361647,0.0601331745 2.16732099,0.130871847 C2.38102551,0.201645871 2.5704351,0.299463916 2.73559104,0.424361332 L2.18188144,1.04252047 Z" id="Path"></path>
                            <path d="M5.04048653,1.96661287 L4.79146536,1.96661287 C4.69066868,1.96661287 4.59289288,1.97443174 4.49803727,1.9900253 C4.40318165,2.00561886 4.32015782,2.03552493 4.2490161,2.0797435 C4.17787439,2.12396208 4.12153499,2.18116792 4.08004824,2.25140521 C4.0385615,2.3216425 4.01781813,2.41136071 4.01781813,2.52060399 C4.01781813,2.68184054 4.05784478,2.80018375 4.13784774,2.87558945 C4.21790104,2.95099515 4.31421675,2.98872008 4.42689556,2.98872008 C4.53358295,2.98872008 4.62697847,2.96530765 4.70698143,2.91848279 C4.78703474,2.8717021 4.8507753,2.81056474 4.8982031,2.73515904 C4.94563091,2.65970917 4.98117659,2.57387831 5.0048905,2.47766648 C5.0286044,2.38145464 5.04048653,2.28652386 5.04048653,2.19287414 L5.04048653,1.96661287 Z M4.89206387,2.98438718 C4.84347404,3.13007137 4.74757306,3.24768634 4.60427842,3.3371614 C4.46102504,3.4266718 4.27524524,3.471427 4.04693903,3.471427 C3.93524016,3.471427 3.82110768,3.45477637 3.70454158,3.42147511 C3.58797548,3.38817384 3.4811026,3.33302525 3.38396418,3.25599398 C3.28682577,3.17899807 3.20672267,3.07700853 3.14357238,2.95006071 C3.0804221,2.82307755 3.04886758,2.66593942 3.04886758,2.47861097 C3.04886758,2.25384511 3.09621998,2.06860241 3.19092478,1.92291822 C3.28562958,1.77723403 3.40949653,1.6606796 3.56248438,1.57325495 C3.71547223,1.48583029 3.88908395,1.42442446 4.08336078,1.38903744 C4.27763761,1.35368578 4.47434806,1.3359746 4.67349212,1.3359746 L4.81922037,1.3359746 L4.81922037,1.2860227 C4.81922037,1.12785938 4.77669396,1.01335535 4.69172362,0.942616675 C4.60671204,0.87184265 4.49377574,0.836455638 4.35295597,0.836455638 C4.21209496,0.836455638 4.08459821,0.863499659 3.97046573,0.917623051 C3.85633324,0.971746443 3.7579574,1.04043472 3.67537943,1.12368788 L3.17269328,0.524265125 C3.32811475,0.366066444 3.5211954,0.243290127 3.75189398,0.155865471 C3.98259256,0.0684408147 4.21209496,0.0247461623 4.44035992,0.0247461623 C4.69778704,0.0247461623 4.91635879,0.0580474265 5.09603392,0.124649955 C5.2757503,0.191252483 5.42147855,0.289070528 5.53317742,0.418104088 C5.64487628,0.547137649 5.72502063,0.704311132 5.77356922,0.889518481 C5.82215905,1.07476118 5.84645396,1.28810845 5.84645396,1.52952494 L5.84645396,3.39025959 L4.90662432,3.39025959 L4.90662432,2.98438718 L4.89206387,2.98438718 Z" id="Shape"></path>
                            <path d="M7.7989155,0.124437845 L7.7989155,0.511573879 L7.8207768,0.511573879 C7.88879432,0.37002583 7.9846953,0.253471406 8.10856225,0.161910605 C8.23238795,0.0703144527 8.40117368,0.0245340524 8.6148782,0.0245340524 C8.81888949,0.0245340524 8.99980206,0.0682287047 9.15765714,0.155653361 C9.31551222,0.243078017 9.44663877,0.362743388 9.55103679,0.514684825 C9.65547606,0.666626261 9.73562041,0.845611718 9.79146984,1.05167655 C9.84731927,1.25770602 9.87524399,1.48144668 9.87524399,1.72289852 C9.87524399,1.96848651 9.84731927,2.19950961 9.79146984,2.41596783 C9.73562041,2.63242605 9.65547606,2.81975449 9.55103679,2.97791782 C9.44663877,3.1361165 9.31551222,3.26097857 9.15765714,3.35257472 C8.99980206,3.44413552 8.81888949,3.48995127 8.6148782,3.48995127 C8.39630645,3.48995127 8.22389092,3.44413552 8.0976316,3.35257472 C7.97133104,3.26097857 7.88392708,3.15693863 7.83533725,3.04038421 L7.8207768,3.04038421 L7.8207768,4.88860437 L6.69883841,4.88860437 L6.69883841,0.124437845 L7.7989155,0.124437845 Z M7.7770542,1.75411404 C7.7770542,1.87483996 7.7872515,1.98930864 7.8076029,2.09752007 C7.82795429,2.20576685 7.85975605,2.30047395 7.90300817,2.38164137 C7.94621707,2.46280878 7.99966649,2.52630036 8.06327,2.57208076 C8.12687351,2.61786116 8.20188417,2.64076904 8.2883884,2.64076904 C8.37999129,2.64076904 8.45755127,2.61786116 8.52115478,2.57208076 C8.58475829,2.52630036 8.6381645,2.46280878 8.68141662,2.38164137 C8.72466873,2.30047395 8.75521743,2.20576685 8.7730195,2.09752007 C8.79082157,1.98930864 8.7997226,1.87483996 8.7997226,1.75411404 C8.7997226,1.62921662 8.79082157,1.51372275 8.7730195,1.40756171 C8.75521743,1.30143603 8.72466873,1.20775413 8.68141662,1.12658672 C8.6381645,1.0454193 8.58475829,0.981927721 8.52115478,0.936147321 C8.45755127,0.890366921 8.37999129,0.867459045 8.2883884,0.867459045 C8.20188417,0.867459045 8.12687351,0.890366921 8.06327,0.936147321 C7.99966649,0.981927721 7.94621707,1.0454193 7.90300817,1.12658672 C7.85975605,1.20775413 7.82795429,1.30143603 7.8076029,1.40756171 C7.7872515,1.51372275 7.7770542,1.62921662 7.7770542,1.75411404 Z" id="Shape"></path>
                        </g>
                        <polygon id="Path" fill="#2F38A8" transform="translate(29.116956, 23.653973) rotate(-41.428216) translate(-29.116956, -23.653973) " points="57.4388196 23.4693667 1.30774678 17.4228565 0.795092574 23.9806287 56.4629199 29.8850891"></polygon>
                        <polygon id="Path" fill="#D0D0D0" transform="translate(21.544308, 39.018403) rotate(2.221789) translate(-21.544308, -39.018403) " points="28.7864741 32.7198034 29.5952873 33.7914184 14.3018749 45.3170023 13.4933281 44.2453873 28.7864741 32.7198034"></polygon>
                        <polygon id="Path" fill="#D0D0D0" transform="translate(20.482724, 44.334600) rotate(2.221789) translate(-20.482724, -44.334600) " points="24.3233214 40.3811228 25.1656909 41.4263866 16.6421268 48.2880764 15.7997574 47.2425464 24.3233214 40.3811228"></polygon>
                        <ellipse id="Oval" fill="#16D51A" cx="14.470533" cy="34.3883275" rx="1.23226185" ry="1.19884628"></ellipse>
                        <ellipse id="Oval" fill="#C8D80E" cx="11.5081271" cy="36.4535691" rx="1.23226185" ry="1.19884628"></ellipse>
                        <ellipse id="Oval" fill="#D52A16" cx="8.54570781" cy="38.5188107" rx="1.23226185" ry="1.19884628"></ellipse>
                    </g>
                    <polygon id="Path" fill="url(#linearGradient-11)" points="44.2853767 147.441946 0.266426424 145.946582 26.7990787 187.641369 75.8653237 175.973643"></polygon>
                    <g id="Excel" transform="translate(260.635299, 122.934560) rotate(77.010883) translate(-260.635299, -122.934560) translate(236.058916, 98.866883)">
                        <g id="Group" transform="translate(24.628686, 24.090334) rotate(-41.428216) translate(-24.628686, -24.090334) translate(5.248220, 9.128709)" fill="#FFFFFF">
                            <polygon id="Path" points="37.2655337 3.44663413 0.307979618 0.0556965591 0.0359504725 28.0920339 38.6851675 29.8116379"></polygon>
                        </g>
                        <g id="Group" transform="translate(24.628686, 24.090334) rotate(-41.428216) translate(-24.628686, -24.090334) translate(5.248220, 9.128709)" fill="#FFFFFF">
                            <polygon id="Path" points="37.2655337 3.44663413 0.307979618 0.0556965591 0.0359504725 28.0920339 38.6851675 29.8116379"></polygon>
                        </g>
                        <g id="Group" transform="translate(17.106767, 16.013727) rotate(-41.428216) translate(-17.106767, -16.013727) translate(-1.746739, 12.082205)" fill="#2FA832">
                            <polygon id="Path" points="37.0313287 3.44663413 0.0737745852 0.0556965591 0.150945143 4.31375311 37.6105178 7.78812631 37.0313287 3.44663413"></polygon>
                        </g>
                        <polygon id="Path" fill="#D0D0D0" points="18.342306 20.5417127 19.15075 21.6133682 7.76950636 30.1907713 6.96086409 29.1191159 18.342306 20.5417127"></polygon>
                        <g id="Group" transform="translate(8.820079, 26.217445)" fill="#D0D0D0">
                            <polygon id="Path" points="6.35022025 0.0574454841 7.19275415 1.10275521 0.849470786 6.20906448 0.00693688229 5.16375475"></polygon>
                        </g>
                        <g id="Group" transform="translate(7.269179, 21.600245)" fill="#16D51A">
                            <ellipse id="Oval" cx="1.00743351" cy="0.901299836" rx="1" ry="1"></ellipse>
                        </g>
                        <g id="Group" transform="translate(5.064523, 23.137211)" fill="#C8D80E">
                            <ellipse id="Oval" cx="1.00743351" cy="0.901299836" rx="1" ry="1"></ellipse>
                        </g>
                        <g id="Group" transform="translate(2.859874, 24.674176)" fill="#D52A16">
                            <ellipse id="Oval" cx="1.00743351" cy="0.901299836" rx="1" ry="1"></ellipse>
                        </g>
                    </g>
                    <g id="Excel" transform="translate(247.480731, 136.111879) rotate(154.021738) translate(-247.480731, -136.111879) translate(229.190873, 118.200602)">
                        <g id="Group" transform="translate(18.328782, 17.928138) rotate(-41.428216) translate(-18.328782, -17.928138) translate(3.905749, 6.793628)" fill="#FFFFFF">
                            <polygon id="Path" points="27.733183 2.5650011 0.22919986 0.0414496376 0.0267545083 20.9062219 28.7896811 22.1859592"></polygon>
                        </g>
                        <g id="Group" transform="translate(18.328782, 17.928138) rotate(-41.428216) translate(-18.328782, -17.928138) translate(3.905749, 6.793628)" fill="#FFFFFF">
                            <polygon id="Path" points="27.733183 2.5650011 0.22919986 0.0414496376 0.0267545083 20.9062219 28.7896811 22.1859592"></polygon>
                        </g>
                        <g id="Group" transform="translate(12.730935, 11.917490) rotate(-41.428216) translate(-12.730935, -11.917490) translate(-1.299931, 8.991633)" fill="#2FA832">
                            <polygon id="Path" points="27.5588865 2.5650011 0.0549033884 0.0414496376 0.112334076 3.21031507 27.9899217 5.79595971 27.5588865 2.5650011"></polygon>
                        </g>
                        <polygon id="Path" fill="#D0D0D0" points="5.07691063 21.5348092 13.5470325 15.151466 14.3556212 16.2231942 5.88549936 22.6065374"></polygon>
                        <g id="Group" transform="translate(6.416445, 19.363727)" fill="#D0D0D0">
                            <polygon id="Path" points="0.0449871512 3.85645268 4.76568805 0.0563136439 5.60805401 1.10165409 0.887353119 4.90179312"></polygon>
                        </g>
                        <g id="Group" transform="translate(5.409757, 16.075002)" fill="#16D51A">
                            <ellipse id="Oval" cx="0.749736686" cy="0.670751517" rx="1" ry="1"></ellipse>
                        </g>
                        <g id="Group" transform="translate(3.769041, 17.218819)" fill="#C8D80E">
                            <ellipse id="Oval" cx="0.749736686" cy="0.670751517" rx="1" ry="1"></ellipse>
                        </g>
                        <g id="Group" transform="translate(2.128332, 18.362637)" fill="#D52A16">
                            <ellipse id="Oval" cx="0.749736686" cy="0.670751517" rx="1" ry="1"></ellipse>
                        </g>
                    </g>
                </g>
                <g id="Trash-Basket" transform="translate(293.484525, 324.079482)">
                    <path d="M77.2631303,55.8192976 C77.2631303,55.8192976 20.1324525,63.9863068 9.84957503,64.7252052 C-9.35581795,66.1053161 -0.957686346,114.375926 46.5489893,97.2500407 C83.4670523,83.941353 108.985292,72.8466987 118.145365,68.1215823 C127.305438,63.3961996 98.7282476,51.3433198 77.2631303,55.8192976 Z" id="Path" fill="url(#linearGradient-12)"></path>
                    <path d="M66.7445597,3.69715342 C67.4220775,3.38280222 64.8768583,4.5076525 65.529342,6.116939 C66.6702564,8.93066174 75.2667964,10.0060037 77.7555558,10.2434307 C85.5749743,10.9887172 104.087137,9.36665434 113.941239,8.16008872 C121.020288,7.29342699 128.934517,5.30910166 134.054783,2.75037338 C135.497438,2.02930869 135.030046,0.676081331 134.040668,0.0883696858 C134.040668,0.0883696858 135.389046,0.624709797 135.108877,2.71843253 C134.604201,6.4911793 126.41513,63.7134787 126.41513,63.7134787 C126.41513,63.7134787 124.759952,66.5639335 122.284509,67.0465065 C119.809065,67.5293457 113.696225,70.6675342 101.998123,70.9299815 C88.7055646,71.2283623 85.8727199,67.5815157 83.9152687,66.6730647 C81.9580837,65.7648799 81.4590003,63.3778336 80.8206315,61.4608503 C77.9736718,52.9113494 67.4902554,18.0393937 66.8340432,15.3752606 C66.1778309,12.7108614 65.225471,9.74541959 64.9985664,7.06345287 C64.8193332,4.94258041 65.615097,4.75466174 66.7445597,3.69715342 Z" id="Path" fill="url(#linearGradient-13)"></path>
                </g>
            </g>
        </g>
    </g>
</svg>