<?xml version="1.0" encoding="UTF-8"?>
<svg width="153px" height="28px" viewBox="0 0 153 28" version="1.1" xmlns="http://www.w3.org/2000/svg" xmlns:xlink="http://www.w3.org/1999/xlink">
    <!-- Generator: Sketch 52.6 (67491) - http://www.bohemiancoding.com/sketch -->
    <title>ABInBev_text_logo</title>
    <desc>Created with Sketch.</desc>
    <g id="WMS-Landing" stroke="none" stroke-width="1" fill="none" fill-rule="evenodd">
        <g id="Landing-Alpha" transform="translate(-411.000000, -651.000000)">
            <g id="Clients-[Div2]" transform="translate(221.000000, 588.000000)">
                <g id="Logos" transform="translate(0.000000, 47.000000)">
                    <g id="ABInBev_text_logo" transform="translate(190.000000, 16.000000)">
                        <path d="M45.0922776,12.1644444 C48.7171592,10.7022222 50.0608653,8.72666667 50.0608653,6.28444444 C50.0608653,2.02222222 46.3266122,0.124444444 40.2018122,0.124444444 L29.2490449,0.124444444 C29.9365224,1.16666667 30.592751,2.28666667 30.592751,3.96666667 L30.592751,12.4288889 C27.3741061,13.0666667 24.4835755,13.6111111 21.7649143,14.2644444 C19.3274939,7.57555556 16.6088327,0.124444444 16.6088327,0.124444444 L9.7965551,0.124444444 C9.90592653,1.05777778 9.81217959,2.05333333 9.31219592,3.40666667 L1.6874449,24.5622222 C1.6874449,24.5622222 1.18746122,26.0555556 0.140620407,27.3933333 L5.71856326,27.3933333 C5.60919184,26.6622222 5.74981224,25.6977778 5.93730612,25.1066667 C6.49978775,23.4422222 8.01536326,22.3377778 9.62468571,21.6222222 C11.7183673,20.6733333 15.3588735,19.5377778 17.0775673,19.0244444 L18.8900082,24.1888889 C18.8900082,24.1888889 19.6243592,26.1333333 19.2337469,27.3933333 L27.1084898,27.3933333 C25.9210286,25.7911111 25.5147918,24.5933333 25.5147918,24.5622222 C25.327298,24.0644444 24.2960816,21.2022222 22.968,17.5933333 C25.3741714,17.0177778 27.8897143,16.5355556 30.592751,16.0066667 L30.592751,23.52 C30.592751,24.9666667 29.9990204,26.2422222 29.2490449,27.3777778 L39.6549551,27.3777778 C41.3580245,27.3777778 42.8736,27.2844444 44.0141878,27.0822222 C48.4827918,26.3044444 51.6858122,24.0333333 51.6858122,19.1955556 C51.7014367,15.4933333 49.2015184,13.2844444 45.0922776,12.1644444 Z M9.90592653,17.7955556 C9.24969796,18.1066667 8.40597551,18.62 7.92161633,19.1022222 C9.42156735,14.7466667 11.484,8.75777778 12.4839673,5.92666667 L15.9213551,15.6955556 C14.1870367,16.1933333 11.515249,17.0333333 9.90592653,17.7955556 Z M36.6706776,3.53111111 C37.7487673,3.46888889 38.1393796,3.46888889 38.8424816,3.46888889 C42.2017469,3.46888889 43.7641959,4.86888889 43.7641959,6.84444444 C43.7641959,8.72666667 42.5142367,9.89333333 40.4361796,10.5155556 C39.5612082,10.78 38.1081306,11.0755556 36.6706776,11.3244444 L36.6706776,3.53111111 Z M39.2018449,24.0022222 L36.686302,24.0022222 L36.686302,14.9177778 C37.6237714,14.7 39.1237224,14.4355556 40.1080653,14.3266667 C43.1392163,15.0266667 45.3735184,16.2711111 45.3735184,19.3511111 C45.3578939,22.9444444 42.7173551,24.0022222 39.2018449,24.0022222 Z" id="Shape" fill="#B3BED1" fill-rule="nonzero"></path>
                        <g id="Group" transform="translate(54.373224, 0.000000)" fill="#9DA8BC">
                            <path d="M0.140620407,27.3933333 C1.48432653,25.3866667 1.48432653,23.5666667 1.48432653,23.5355556 L1.48432653,3.99777778 C1.48432653,3.96666667 1.48432653,2.16222222 0.140620407,0.14 L8.93720816,0.14 C7.59350204,2.16222222 7.59350204,3.96666667 7.59350204,3.99777778 L7.59350204,23.5355556 C7.59350204,23.5666667 7.59350204,25.3866667 8.93720816,27.3933333 L0.140620407,27.3933333 Z" id="Path"></path>
                            <path d="M98.6061551,8.19777778 L92.7157224,8.19777778 C93.2157061,9.00666667 93.0125878,10.2977778 92.4969796,11.6044444 L88.6846041,21.7311111 L84.7316082,11.6044444 C84.2003755,10.2977778 84.0128816,9.00666667 84.5128653,8.19777778 L76.9037388,8.19777778 C77.9505796,9.30222222 78.6068082,10.7177778 78.9817959,11.6044444 L85.5284571,27.3933333 L90.6220408,27.3933333 C90.6220408,27.3933333 90.7470367,26.1022222 91.3251429,24.6555556 C91.3251429,24.6555556 91.3251429,24.6555556 91.3251429,24.6555556 L96.5905959,11.6044444 C96.9499592,10.7022222 97.6999347,9.14666667 98.6061551,8.19777778" id="Path"></path>
                            <path d="M77.6849633,18.3555556 C78.059951,14.3422222 76.9506122,7.35777778 68.0446531,7.35777778 C60.7792653,7.35777778 58.1074776,12.3977778 58.1074776,17.3133333 C58.1074776,23.5666667 61.5292408,27.86 69.7164735,27.86 C73.0444898,27.86 75.731902,26.88 77.3256,25.9155556 L75.6850286,22.3066667 C74.1382041,23.0844444 72.2476408,23.7688889 70.1383347,23.7688889 C66.4822041,23.7688889 64.2322776,22.4933333 63.7479184,18.8844444 L71.6539102,18.8844444 C74.5600653,18.9 76.9193633,18.7288889 77.6849633,18.3555556 Z M63.7635429,15.5866667 C64.1229061,12.4911111 65.5134857,10.92 68.0446531,10.92 C70.6695673,10.92 71.9664,12.9422222 72.0757714,15.5555556 C72.0757714,15.5555556 70.9195592,15.5866667 69.4196082,15.5866667 L63.7635429,15.5866667 Z" id="Shape" fill-rule="nonzero"></path>
                            <path d="M23.9835918,27.3933333 L31.7802122,27.3933333 C30.592751,25.62 30.592751,24.0022222 30.592751,23.9866667 L30.592751,13.7355556 C30.592751,10.0644444 28.6084408,7.80888889 24.4210776,7.80888889 C21.7492898,7.80888889 19.5462367,9.00666667 17.9212898,10.4688889 L17.9212898,8.19777778 L11.2965061,8.19777778 C12.4839673,9.98666667 12.4839673,11.5888889 12.4839673,11.6044444 L12.4839673,23.9711111 C12.4839673,24.0022222 12.4839673,25.6044444 11.2965061,27.3777778 L19.108751,27.3777778 C17.9212898,25.6044444 17.9212898,23.9866667 17.9212898,23.9711111 L17.9212898,13.7355556 C18.9212571,12.7088889 20.3430857,11.9622222 21.9055347,11.9622222 C24.2960816,11.9622222 25.1710531,13.2844444 25.1710531,15.3377778 L25.1710531,23.9711111 C25.1710531,24.0022222 25.1710531,25.6044444 23.9835918,27.3933333" id="Path"></path>
                            <path d="M44.1860571,14.5288889 C48.0296816,14.5288889 50.1389878,16.3955556 50.1389878,19.4133333 C50.1389878,22.12 48.5140408,24.0955556 44.0923102,24.0955556 L41.4517714,24.0955556 L41.4517714,14.5288889 L44.1860571,14.5288889 Z M43.607951,3.43777778 C46.9672163,3.43777778 48.5296653,4.74444444 48.5296653,7.20222222 C48.5296653,9.64444444 47.1234612,11.1066667 43.8891918,11.1066667 C43.2642122,11.1066667 42.1236245,11.1222222 41.4517714,11.1066667 L41.4517714,3.43777778 L43.607951,3.43777778 Z M44.3110531,27.3933333 C46.0141224,27.3933333 47.5921959,27.3 48.7327837,27.0977778 C53.1232653,26.3355556 56.3731592,24.0955556 56.3731592,19.2733333 C56.3731592,15.4 53.8888653,13.3933333 49.9827429,12.2733333 C53.4826286,10.9511111 54.6544653,9.05333333 54.6544653,6.58 C54.6544653,2.31777778 51.1702041,0.14 44.8891592,0.14 L34.389502,0.14 C35.1238531,1.24444444 35.3738449,2.84666667 35.3738449,3.99777778 L35.3738449,23.5355556 C35.3738449,24.8111111 35.1394776,26.1488889 34.389502,27.3933333 L44.3110531,27.3933333 Z" id="Shape" fill-rule="nonzero"></path>
                        </g>
                    </g>
                </g>
            </g>
        </g>
    </g>
</svg>