<?xml version="1.0" encoding="UTF-8"?>
<svg width="60px" height="60px" viewBox="0 0 60 60" version="1.1" xmlns="http://www.w3.org/2000/svg" xmlns:xlink="http://www.w3.org/1999/xlink">
    <!-- Generator: Sketch 52.6 (67491) - http://www.bohemiancoding.com/sketch -->
    <title>Grupo Modelo Logo</title>
    <desc>Created with Sketch.</desc>
    <g id="WMS-Landing" stroke="none" stroke-width="1" fill="none" fill-rule="evenodd">
        <g id="Landing-Alpha" transform="translate(-221.000000, -635.000000)">
            <g id="Clients-[Div2]" transform="translate(221.000000, 588.000000)">
                <g id="Logos" transform="translate(0.000000, 47.000000)">
                    <g id="Grupo-Modelo-Logo">
                        <g id="Logo">
                            <path d="M59.594306,29.9785714 C59.594306,46.3928571 46.3345196,59.7 29.9786477,59.7 C13.6227758,59.7 0.362989324,46.3928571 0.362989324,29.9785714 C0.362989324,13.5642857 13.6227758,0.257142857 29.9786477,0.257142857 C46.3345196,0.257142857 59.594306,13.5642857 59.594306,29.9785714 Z" id="XMLID_295_" fill="#FFFFFF"></path>
                            <path d="M49.1530249,29.9785714 C49.1530249,40.6071429 40.569395,49.2214286 29.9786477,49.2214286 C19.3879004,49.2214286 10.8042705,40.6071429 10.8042705,29.9785714 C10.8042705,19.35 19.3879004,10.7357143 29.9786477,10.7357143 C40.569395,10.7357143 49.1530249,19.35 49.1530249,29.9785714 Z" id="XMLID_294_" fill="#A1ADC0"></path>
                            <g id="XMLID_290_" fill="#A1ADC0" fill-rule="nonzero">
                                <path d="M8.88256228,8.80714286 C3.2455516,14.4642857 0.149466192,21.9857143 0.149466192,29.9785714 C0.149466192,46.4785714 13.5373665,59.9142857 29.9786477,59.9142857 C37.9430605,59.9142857 45.4377224,56.8071429 51.0747331,51.15 C56.7117438,45.4928571 59.8078292,37.9714286 59.8078292,29.9785714 C59.8078292,13.4785714 46.4199288,0.0428571429 29.9786477,0.0428571429 C22.0142349,0.0428571429 14.519573,3.15 8.88256228,8.80714286 Z M0.918149466,29.9785714 C0.918149466,22.1785714 3.95017794,14.8714286 9.43772242,9.34285714 C14.9252669,3.83571429 22.227758,0.792857143 29.9786477,0.792857143 C46.0142349,0.792857143 59.0391459,13.8857143 59.0391459,29.9571429 C59.0391459,37.7571429 56.0071174,45.0642857 50.519573,50.5714286 C45.0320285,56.0785714 37.7295374,59.1214286 29.9786477,59.1214286 C13.9644128,59.1428571 0.918149466,46.05 0.918149466,29.9785714 Z" id="XMLID_291_"></path>
                            </g>
                            <g id="XMLID_286_" transform="translate(9.395018, 9.214286)" fill="#A1ADC0" fill-rule="nonzero">
                                <path d="M6.04270463,6.17142857 C2.15658363,10.0714286 0.0213523132,15.2571429 0.0213523132,20.7642857 C0.0213523132,32.1428571 9.2455516,41.4 20.5836299,41.4 C31.9217082,41.4 41.1459075,32.1428571 41.1459075,20.7642857 C41.1459075,15.2571429 39.0106762,10.0714286 35.1245552,6.17142857 C31.2384342,2.27142857 26.0711744,0.128571429 20.5836299,0.128571429 C15.0960854,0.128571429 9.92882562,2.27142857 6.04270463,6.17142857 Z M0.790035587,20.7642857 C0.790035587,15.45 2.83985765,10.4785714 6.59786477,6.70714286 C10.3345196,2.95714286 15.3096085,0.878571429 20.6049822,0.878571429 C25.9003559,0.878571429 30.8540925,2.93571429 34.6120996,6.70714286 C38.3487544,10.4571429 40.4199288,15.45 40.4199288,20.7642857 C40.4199288,31.7142857 31.5373665,40.6285714 20.6263345,40.6285714 C9.67259786,40.6285714 0.790035587,31.7142857 0.790035587,20.7642857 Z" id="XMLID_287_"></path>
                            </g>
                            <g id="XMLID_139_" transform="translate(12.384342, 13.071429)">
                                <polygon id="XMLID_285_" fill="#FFFFFF" points="3.77935943 14.1 7.79359431 13.9071429 7.47330961 14.5714286 6.91814947 14.7857143 6.06405694 14.9357143 5.53024911 14.8071429 5.08185053 14.8714286 4.46263345 14.85 4.12099644 14.6142857 3.95017794 14.3571429"></polygon>
                                <polygon id="XMLID_284_" fill="#FFFFFF" points="11.6370107 15.5142857 0.555160142 14.9357143 0.0213523132 15.4071429 0.683274021 16.0285714 11.4021352 16.5"></polygon>
                                <polygon id="XMLID_283_" fill="#FFFFFF" points="23.594306 15.6 23.9145907 16.6071429 34.569395 15.9 35.1672598 15.4071429 34.3772242 14.6142857 23.5088968 15.4071429"></polygon>
                                <polygon id="XMLID_282_" fill="#FFFFFF" points="26.9679715 13.9071429 30.683274 13.9071429 30.5338078 14.3571429 29.7224199 14.5928571 28.5907473 14.7428571 28.0142349 14.5928571 27.13879 14.55"></polygon>
                                <path d="M23.0391459,13.8857143 C23.1032028,13.9285714 23.1886121,13.7571429 23.252669,13.6928571 C23.252669,13.6928571 23.4875445,13.35 24.7046263,12.8357143 L25.772242,12.3214286 C25.772242,12.3214286 26.1352313,12.1285714 25.9217082,11.6357143 C25.9217082,11.6357143 25.8576512,11.2714286 25.3451957,11.2071429 C25.3451957,11.2071429 25.430605,10.7571429 25.9857651,10.5428571 C25.9857651,10.5428571 26.0711744,12.0857143 26.9252669,12.5142857 C26.9252669,12.5142857 26.86121,12.2571429 26.9466192,12.0857143 C26.9466192,12.0857143 27.1601423,12.3857143 27.3309609,12.4071429 C27.3309609,12.4071429 27.2455516,11.8714286 28.0142349,11.7428571 C28.0142349,11.7428571 29.0818505,11.4857143 29.1459075,12.15 C29.1459075,12.15 29.3807829,12.7285714 28.6761566,13.1357143 C28.6761566,13.1357143 28.0782918,13.5214286 27.9288256,13.6071429 C27.9288256,13.6071429 27.4590747,13.9928571 27.9501779,14.1642857 C27.9501779,14.1642857 28.4199288,14.1 28.6120996,13.9714286 C28.6120996,13.9714286 28.6120996,14.1642857 28.8683274,14.1642857 C28.8683274,14.1642857 29.1459075,14.1642857 29.4234875,13.9285714 C29.4234875,13.9285714 29.6156584,14.3571429 30.1067616,13.9714286 L30.6619217,13.3928571 C30.6619217,13.3928571 30.8113879,13.4142857 30.6619217,12.8571429 C30.6619217,12.8571429 30.2348754,11.0142857 30.8113879,11.2285714 C30.8113879,11.2285714 31.1316726,11.3142857 31.2597865,11.5071429 C31.2597865,11.5071429 31.0462633,10.0285714 30.3202847,10.05 C30.3202847,10.05 29.8932384,9.98571429 29.594306,10.2 C29.594306,10.2 29.2313167,10.4142857 28.8683274,10.05 C28.8683274,10.05 28.3558719,9.62142857 27.9715302,8.7 C27.9715302,8.7 27.6085409,7.77857143 28.5053381,7.95 C28.5053381,7.95 28.1423488,7.41428571 28.0996441,7.24285714 C28.0996441,7.24285714 28.6120996,7.32857143 28.7829181,7.47857143 C28.7829181,7.47857143 28.227758,6.15 27.5658363,5.57142857 C27.5658363,5.57142857 28.2704626,2.59285714 26.2419929,2.52857143 C26.2419929,2.52857143 24.4697509,2.31428571 21.5231317,3.21428571 C21.5231317,3.21428571 19.9430605,3.70714286 19.2170819,3 C19.2170819,3 18.8754448,2.46428571 19.7508897,2.25 C19.7508897,2.25 20.3914591,1.97142857 21.2669039,2.16428571 C21.2669039,2.16428571 23.594306,2.76428571 24.9395018,1.90714286 C24.9395018,1.90714286 24.1708185,1.8 24.0213523,1.60714286 C24.0213523,1.60714286 24.8327402,1.37142857 25.6014235,1.43571429 C25.6014235,1.43571429 22.1209964,-0.214285714 20.4341637,1.15714286 C20.4341637,1.15714286 17.8291815,1.24285714 18.1494662,3.08571429 C18.1494662,3.08571429 18.4911032,4.88571429 21.0106762,4.26428571 C21.0106762,4.26428571 23.6156584,3.64285714 23.9145907,3.55714286 C23.9145907,3.55714286 27.886121,2.87142857 26.2206406,4.92857143 C26.2206406,4.92857143 24.0640569,4.86428571 21.8647687,5.52857143 C21.8647687,5.52857143 19.6654804,6.34285714 18.2348754,6.40714286 C18.2348754,6.40714286 18.4697509,6.06428571 18.4270463,5.80714286 C18.4270463,5.80714286 17.5302491,5.93571429 17.1032028,5.52857143 C17.1032028,5.52857143 17.5088968,4.92857143 17.7010676,4.86428571 C17.7010676,4.86428571 17.4021352,4.92857143 16.8896797,4.67142857 C16.8896797,4.67142857 17.5516014,4.26428571 17.9572954,4.24285714 C17.9572954,4.24285714 17.6370107,3.85714286 16.4412811,3.62142857 C16.4412811,3.62142857 16.911032,3.38571429 17.0391459,3.21428571 C17.0391459,3.21428571 16.3772242,3.02142857 15.7153025,2.31428571 C15.7153025,2.31428571 14.9252669,1.32857143 14.4982206,1.45714286 C14.4982206,1.45714286 14.1992883,0.771428571 13.2170819,0.792857143 C13.2170819,0.792857143 12.8327402,0.385714286 11.658363,0.514285714 C11.658363,0.514285714 11.4875445,0.235714286 11.4661922,0.15 C11.4661922,0.15 10.8683274,0.621428571 10.6120996,1.17857143 C10.6120996,1.17857143 9.80071174,1.52142857 9.28825623,2.33571429 C9.28825623,2.33571429 9.0747331,2.74285714 8.73309609,2.93571429 C8.73309609,2.93571429 7.1316726,3.6 7.21708185,4.30714286 C7.21708185,4.30714286 7.21708185,4.88571429 7.70818505,4.82142857 C7.70818505,4.82142857 7.9430605,4.86428571 7.92170819,5.18571429 C7.92170819,5.18571429 8.47686833,5.29285714 8.86120996,5.25 C8.86120996,5.25 8.28469751,6 7.4519573,6.34285714 C7.4519573,6.34285714 8.22064057,6.57857143 9.77935943,5.74285714 C9.77935943,5.74285714 9.75800712,5.95714286 9.33096085,6.10714286 C9.33096085,6.10714286 9.28825623,6.21428571 9.35231317,6.23571429 C9.35231317,6.23571429 9.30960854,6.32142857 9.09608541,6.34285714 C9.09608541,6.34285714 9.09608541,6.87857143 10.6975089,6.66428571 C10.6975089,6.66428571 10.6120996,6.98571429 10.2704626,7.30714286 C10.2704626,7.30714286 10.3772242,7.37142857 10.633452,7.35 C10.633452,7.35 10.2918149,8.48571429 9.75800712,9.19285714 C9.75800712,9.19285714 9.43772242,9.70714286 9.18149466,9.92142857 C9.18149466,9.92142857 7.83629893,10.8 7.85765125,11.0785714 C7.85765125,11.0785714 8.113879,11.0785714 8.2633452,11.0571429 C8.2633452,11.0571429 7.53736655,12.0428571 6.46975089,12.5357143 C6.46975089,12.5357143 5.08185053,13.05 4.78291815,13.4142857 C4.78291815,13.4142857 4.14234875,14.4857143 4.82562278,14.4857143 C4.82562278,14.4857143 6.02135231,14.3785714 6.29893238,14.4428571 C6.29893238,14.4428571 6.61921708,14.5071429 7.51601423,13.6714286 C7.51601423,13.6714286 9.95017794,11.6357143 10.8683274,11.6142857 C10.8683274,11.6142857 10.8683274,11.9357143 10.9964413,12.0214286 C10.9964413,12.0214286 11.7224199,11.0357143 12.1494662,11.0357143 C12.5765125,11.0357143 13.1316726,12.1928571 15.7153025,12.1071429 C15.7153025,12.1071429 17.5516014,12.2571429 19.7295374,10.9071429 C19.7295374,10.9071429 21.6939502,9.81428571 22.6761566,8.95714286 C22.6761566,8.95714286 23.9359431,8.91428571 24.0213523,9.04285714 C24.0213523,9.04285714 22.8896797,10.1357143 23.0604982,11.5714286 C23.0604982,11.5714286 23.316726,11.2285714 23.3380783,11.2285714 C23.3380783,11.2285714 23.3807829,11.4857143 23.4661922,11.5714286 C23.4661922,11.5714286 23.658363,11.1 23.8505338,11.1428571 C23.8505338,11.1428571 24.3202847,11.1428571 24.2348754,11.7 C24.2348754,11.7 24.2135231,12.1928571 23.6370107,12.2571429 C23.6370107,12.2571429 22.4626335,12.3214286 22.0782918,12.4928571 C22.0782918,12.4928571 21.5231317,12.6857143 21.2882562,13.05 C21.2241993,13.05 22.4412811,13.35 23.0391459,13.8857143 Z" id="XMLID_281_" fill="#B7C2D5"></path>
                                <path d="M22.8469751,13.6714286 L27.0747331,13.9071429 C27.0747331,13.9071429 27.0747331,14.7214286 28.1423488,14.3785714 C28.1423488,14.3785714 28.7829181,14.7857143 29.3380783,14.4642857 C29.3380783,14.4642857 30.5978648,14.3571429 30.4483986,13.8642857 L33.9074733,13.9928571 L34.8683274,15.1071429 L23.658363,15.7285714 C23.6797153,15.75 23.2099644,14.25 22.8469751,13.6714286 Z" id="XMLID_280_" fill="#B7C2D5"></path>
                                <path d="M24.683274,25.7571429 L34.9323843,15.5785714 L23.8078292,16.2857143 C23.8078292,16.2857143 24.7259786,19.3928571 24.747331,21.15 C24.7686833,21.15 24.8327402,24.8357143 24.683274,25.7571429 Z" id="XMLID_279_" fill="#B7C2D5"></path>
                                <path d="M10.7188612,25.65 L0.234875445,15.6 L11.4661922,16.2428571 C11.4661922,16.2428571 10.6975089,19.7785714 10.6548043,20.4214286 C10.6761566,20.4428571 10.4839858,23.0142857 10.7188612,25.65 Z" id="XMLID_278_" fill="#B7C2D5"></path>
                                <path d="M11.6156584,15.7071429 L0.341637011,15.1285714 L1.47330961,14.1428571 L4.01423488,14.1 C4.01423488,14.1 4.09964413,14.6357143 4.39857651,14.7428571 C4.39857651,14.7428571 4.95373665,14.8714286 5.27402135,14.7214286 C5.27402135,14.7214286 5.65836299,14.6785714 5.74377224,14.7857143 C5.74377224,14.7857143 6.17081851,14.9785714 6.55516014,14.7857143 L7.23843416,14.5071429 C7.23843416,14.5071429 7.6227758,14.3571429 7.6227758,13.9285714 L12.1067616,13.8 C12.1494662,13.7785714 11.7864769,15.3428571 11.6156584,15.7071429 Z" id="XMLID_277_" fill="#B7C2D5"></path>
                                <path d="M17.7437722,12.6428571 C17.7437722,12.6428571 12.3202847,12.6214286 11.9572954,14.2285714 C11.9572954,14.2285714 11.1459075,17.2285714 10.9323843,18.6857143 C10.9323843,18.6857143 10.3345196,22.6071429 10.7188612,25.65 C10.7188612,25.65 11.2740214,29.85 13.6868327,32.9357143 C13.6868327,32.9357143 14.7330961,34.0071429 17.7651246,34.0071429 C17.7651246,34.0071429 20.5409253,34.05 21.7580071,32.9357143 C22.975089,31.8 24.6619217,27.45 24.6619217,25.65 C24.6619217,25.65 25.0676157,21.7928571 24.3843416,18.6857143 C24.3843416,18.6857143 23.7224199,15.3857143 23.1886121,14.2285714 C23.1886121,14.2285714 22.8469751,12.6428571 17.7437722,12.6428571 Z" id="XMLID_276_" fill="#D6E1F5"></path>
                                <g id="XMLID_274_" transform="translate(12.597865, 13.285714)" fill="#ACB7CB">
                                    <path d="M0.0213523132,1.5 C0.0213523132,1.52142857 0.0427046263,1.90714286 0.384341637,2.07857143 L0.46975089,1.86428571 C0.256227758,1.77857143 0.234875445,1.52142857 0.234875445,1.5 C0.234875445,0.75 3.2455516,0.385714286 5.14590747,0.321428571 C5.16725979,0.321428571 8.79715302,0.407142857 9.5658363,1.22142857 C9.65124555,1.30714286 9.69395018,1.41428571 9.69395018,1.5 L9.69395018,1.52142857 L9.69395018,1.54285714 C9.69395018,1.56428571 9.75800712,1.84285714 9.54448399,1.95 L9.65124555,2.16428571 C9.886121,2.05714286 9.95017794,1.82142857 9.95017794,1.62857143 C9.95017794,1.58571429 9.95017794,1.54285714 9.95017794,1.52142857 C9.95017794,1.52142857 9.95017794,1.52142857 9.95017794,1.5 C9.95017794,1.5 9.95017794,1.5 9.95017794,1.5 C9.95017794,1.5 9.95017794,1.5 9.95017794,1.5 C9.95017794,1.5 9.95017794,1.5 9.95017794,1.5 C9.95017794,1.35 9.886121,1.2 9.75800712,1.07142857 C8.9252669,0.192857143 5.31672598,0.107142857 5.16725979,0.107142857 C4.63345196,0.107142857 0.0213523132,0.3 0.0213523132,1.5 Z" id="XMLID_275_"></path>
                                </g>
                                <g id="XMLID_269_" transform="translate(13.238434, 13.714286)" fill="#ACB7CA" fill-rule="nonzero">
                                    <path d="M0.128113879,1.39285714 C0.128113879,1.41428571 0.106761566,1.45714286 0.106761566,1.47857143 C0.106761566,1.62857143 0.192170819,1.84285714 0.46975089,1.99285714 L0.576512456,1.77857143 C0.277580071,1.62857143 0.341637011,1.43571429 0.341637011,1.41428571 L0.341637011,1.39285714 L0.341637011,1.37142857 C0.341637011,0.921428571 2.49822064,0.492857143 4.50533808,0.364285714 C6,0.364285714 8.37010676,0.642857143 8.37010676,1.37142857 L8.37010676,1.39285714 L8.37010676,1.41428571 C8.37010676,1.41428571 8.39145907,1.47857143 8.32740214,1.56428571 C8.2633452,1.65 8.13523132,1.77857143 7.77224199,1.86428571 L7.81494662,2.07857143 C8.17793594,1.99285714 8.41281139,1.84285714 8.54092527,1.65 C8.58362989,1.56428571 8.60498221,1.47857143 8.60498221,1.41428571 C8.60498221,1.37142857 8.60498221,1.35 8.60498221,1.35 C8.58362989,0.171428571 4.91103203,0.128571429 4.50533808,0.128571429 C3.77935943,0.214285714 0.149466192,0.514285714 0.128113879,1.39285714 Z M0.128113879,1.39285714 C0.128113879,1.39285714 0.128113879,1.39285714 0.128113879,1.39285714 C0.128113879,1.37142857 0.128113879,1.37142857 0.128113879,1.35 L0.128113879,1.39285714 Z" id="XMLID_270_"></path>
                                </g>
                                <g id="XMLID_267_" transform="translate(18.576512, 14.571429)" fill="#ACB7CA">
                                    <rect id="XMLID_268_" x="0.192170819" y="0.213523132" width="2.88256228" height="1"></rect>
                                </g>
                                <g id="XMLID_265_" transform="translate(13.665480, 14.571429)" fill="#ACB7CA">
                                    <rect id="XMLID_266_" x="0.0427046263" y="0.213523132" width="2.79715302" height="1"></rect>
                                </g>
                                <g id="XMLID_263_" transform="translate(13.665480, 15.428571)" fill="#ACB7CA">
                                    <rect id="XMLID_264_" x="0.0427046263" y="0.128113879" width="7.66548043" height="1"></rect>
                                </g>
                                <g id="XMLID_259_" transform="translate(16.227758, 13.928571)" fill="#ACB7CA" fill-rule="nonzero">
                                    <path d="M0.149466192,0.857142857 C0.149466192,1.24285714 0.704626335,1.54285714 1.40925267,1.54285714 C2.113879,1.54285714 2.66903915,1.24285714 2.66903915,0.857142857 C2.66903915,0.471428571 2.113879,0.171428571 1.40925267,0.171428571 C0.704626335,0.171428571 0.149466192,0.471428571 0.149466192,0.857142857 Z M0.362989324,0.857142857 C0.362989324,0.642857143 0.790035587,0.407142857 1.38790036,0.407142857 C1.98576512,0.407142857 2.41281139,0.642857143 2.41281139,0.857142857 C2.41281139,1.07142857 1.98576512,1.30714286 1.38790036,1.30714286 C0.790035587,1.32857143 0.362989324,1.09285714 0.362989324,0.857142857 Z" id="XMLID_260_"></path>
                                </g>
                                <path d="M17.0604982,14.3142857 L17.0604982,15.2785714 C17.0604982,15.2785714 17.3380783,15.3642857 17.6370107,15.3642857 C17.6370107,15.3642857 17.9572954,15.3642857 18.1921708,15.3 L18.1921708,14.2714286 C18.1921708,14.2714286 18,14.2071429 17.6370107,14.2071429 C17.6370107,14.2285714 17.316726,14.2285714 17.0604982,14.3142857 Z" id="XMLID_258_" fill="#ACB7CA"></path>
                                <path d="M18.0854093,14.4642857 C18.0854093,14.5714286 17.8718861,14.6571429 17.6370107,14.6571429 C17.3807829,14.6571429 17.1886121,14.5714286 17.1886121,14.4642857 C17.1886121,14.3571429 17.3807829,14.2714286 17.6370107,14.2714286 C17.8718861,14.25 18.0854093,14.3571429 18.0854093,14.4642857 Z" id="XMLID_257_" fill="#FFFFFF"></path>
                                <g id="XMLID_255_" transform="translate(11.957295, 13.714286)" fill="#ACB7CB">
                                    <polygon id="XMLID_256_" transform="translate(0.518034, 0.558130) rotate(-57.907162) translate(-0.518034, -0.558130) " points="0.420674167 0.097132778 0.684351761 0.0790722678 0.615393449 1.01912722 0.351715855 1.03718773"></polygon>
                                </g>
                                <g id="XMLID_253_" transform="translate(12.597865, 13.285714)" fill="#ACB7CB">
                                    <path d="M0.170818505,0.15 C0.170818505,0.15 0.704626335,0.835714286 0.747330961,0.9 C0.747330961,0.964285714 0.747330961,1.84285714 0.747330961,1.84285714 L0.982206406,1.84285714 L0.982206406,0.835714286 L0.341637011,0.0214285714 L0.170818505,0.15 Z" id="XMLID_254_"></path>
                                </g>
                                <g id="XMLID_251_" transform="translate(13.879004, 12.857143)" fill="#ACB7CB">
                                    <path d="M0.1,0.192857143 C0.1,0.192857143 0.525,0.964285714 0.55,1.00714286 C0.55,1.05 0.55,1.60714286 0.55,1.60714286 L0.825,1.60714286 L0.825,0.942857143 L0.35,0.0857142857 L0.1,0.192857143 Z" id="XMLID_252_"></path>
                                </g>
                                <g id="XMLID_249_" transform="translate(15.160142, 12.642857)" fill="#ACB7CB">
                                    <path d="M0,0.214285714 C0,0.214285714 0.533333333,1.00714286 0.533333333,1.05 C0.533333333,1.09285714 0.533333333,1.58571429 0.533333333,1.58571429 L0.9,1.58571429 L0.9,1.00714286 L0.333333333,0.128571429 L0,0.214285714 Z" id="XMLID_250_"></path>
                                </g>
                                <g id="XMLID_247_" transform="translate(16.441281, 12.642857)" fill="#ACB7CB">
                                    <polygon id="XMLID_248_" points="0.1 0.0857142857 0.333333333 0.921428571 0.333333333 1.43571429 0.7 1.43571429 0.7 0.9 0.466666667 0.0428571429"></polygon>
                                </g>
                                <g id="XMLID_245_" transform="translate(17.935943, 12.642857)" fill="#ACB7CB">
                                    <path d="M0.2,0.835714286 L0.2,1.35 L0.566666667,1.35 C0.566666667,1.35 0.566666667,0.9 0.566666667,0.878571429 C0.566666667,0.857142857 0.933333333,0.0857142857 0.933333333,0.0857142857 L0.6,0.0214285714 L0.2,0.835714286 Z" id="XMLID_246_"></path>
                                </g>
                                <g id="XMLID_243_" transform="translate(19.430605, 12.642857)" fill="#ACB7CB">
                                    <path d="M0.025,0.942857143 L0.025,1.45714286 L0.3,1.45714286 C0.3,1.45714286 0.3,1.05 0.3,1.00714286 C0.325,0.964285714 0.775,0.214285714 0.775,0.214285714 L0.525,0.107142857 L0.025,0.942857143 Z" id="XMLID_244_"></path>
                                </g>
                                <g id="XMLID_241_" transform="translate(20.711744, 12.857143)" fill="#ACB7CB">
                                    <path d="M0.075,0.942857143 L0.075,1.54285714 L0.35,1.54285714 C0.35,1.54285714 0.35,1.09285714 0.35,1.02857143 C0.4,0.964285714 0.975,0.321428571 0.975,0.321428571 L0.75,0.192857143 L0.075,0.942857143 Z" id="XMLID_242_"></path>
                                </g>
                                <g id="XMLID_239_" transform="translate(21.779359, 13.500000)" fill="#ACB7CB">
                                    <path d="M0.106761566,0.642857143 L0.106761566,1.86428571 L0.341637011,1.86428571 C0.341637011,1.86428571 0.341637011,0.857142857 0.341637011,0.75 C0.40569395,0.685714286 0.918149466,0.257142857 0.918149466,0.257142857 L0.768683274,0.0857142857 L0.106761566,0.642857143 Z" id="XMLID_240_"></path>
                                </g>
                                <g id="XMLID_237_" transform="translate(22.206406, 14.142857)" fill="#ACB7CB">
                                    <polygon id="XMLID_238_" transform="translate(0.567739, 0.518173) rotate(-13.856982) translate(-0.567739, -0.518173) " points="0.15328888 0.392945024 1.01283408 0.284293232 0.9821887 0.643401643 0.122643503 0.752053434"></polygon>
                                </g>
                                <g id="XMLID_232_" transform="translate(11.316726, 13.928571)">
                                    <path d="M11.8718861,0.3 C11.8718861,1.99285714 6.42704626,2.29285714 6.42704626,2.29285714 C1.38790036,2.29285714 0.640569395,0.321428571 0.640569395,0.321428571 C0.555160142,0.621428571 0.192170819,2.05714286 0.192170819,2.05714286 C0.192170819,2.05714286 2.83985765,3.83571429 6.36298932,3.83571429 C6.36298932,3.83571429 10.0142349,3.79285714 12.405694,2.1 L11.8718861,0.3 Z" id="XMLID_236_" fill="#FFFFFF"></path>
                                    <path d="M0.555160142,0.3 C0.46975089,0.6 0.106761566,1.97142857 0.106761566,2.03571429 L0.0854092527,2.12142857 L0.149466192,2.16428571 C0.170818505,2.18571429 2.88256228,3.96428571 6.38434164,3.96428571 C6.42704626,3.96428571 10.0996441,3.9 12.4911032,2.22857143 L12.5551601,2.18571429 L11.9786477,0.3 L11.7651246,0.342857143 C11.7651246,1.65 7.92170819,2.14285714 6.42704626,2.20714286 C1.55871886,2.20714286 0.768683274,0.342857143 0.768683274,0.321428571 L0.640569395,0.0214285714 L0.555160142,0.3 Z M0.683274021,0.621428571 C1.06761566,1.15714286 2.39145907,2.4 6.42704626,2.4 C6.6405694,2.37857143 11.1245552,2.12142857 11.8718861,0.707142857 C12,1.15714286 12.2562278,1.95 12.2775801,2.05714286 C9.95017794,3.66428571 6.40569395,3.70714286 6.36298932,3.70714286 C3.20284698,3.70714286 0.747330961,2.25 0.320284698,1.99285714 C0.384341637,1.75714286 0.576512456,1.02857143 0.683274021,0.621428571 Z" id="XMLID_233_" fill="#ACB7CB" fill-rule="nonzero"></path>
                                </g>
                                <g id="XMLID_227_" transform="translate(12.811388, 31.500000)">
                                    <path d="M0.149466192,0.407142857 C0.149466192,0.407142857 1.81494662,1.43571429 4.8683274,1.43571429 C4.8683274,1.43571429 7.68683274,1.5 9.71530249,0.385714286 C9.71530249,0.385714286 9.22419929,1.32857143 8.7544484,1.58571429 C8.7544484,1.58571429 7.40925267,2.55 4.91103203,2.55 C4.91103203,2.55 2.58362989,2.61428571 0.939501779,1.58571429 L0.149466192,0.407142857 Z" id="XMLID_231_" fill="#FFFFFF"></path>
                                    <path d="M9.67259786,0.257142857 C7.68683274,1.35 4.91103203,1.30714286 4.88967972,1.30714286 C1.90035587,1.30714286 0.234875445,0.321428571 0.213523132,0.3 L0.0640569395,0.471428571 L0.87544484,1.65 L0.896797153,1.67142857 C2.56227758,2.7 4.84697509,2.65714286 4.93238434,2.65714286 C7.43060498,2.65714286 8.77580071,1.71428571 8.83985765,1.67142857 C9.30960854,1.39285714 9.80071174,0.471428571 9.82206406,0.428571429 L10.0142349,0.0857142857 L9.67259786,0.257142857 Z M9.43772242,0.642857143 C9.26690391,0.921428571 8.96797153,1.32857143 8.71174377,1.47857143 C8.69039146,1.5 7.36654804,2.42142857 4.93238434,2.42142857 C4.91103203,2.42142857 2.62633452,2.48571429 1.04626335,1.5 C1.02491103,1.47857143 0.747330961,1.07142857 0.512455516,0.728571429 C1.17437722,1.02857143 2.64768683,1.56428571 4.88967972,1.56428571 C4.99644128,1.54285714 7.4519573,1.58571429 9.43772242,0.642857143 Z" id="XMLID_228_" fill="#ACB7CA" fill-rule="nonzero"></path>
                                </g>
                                <g id="XMLID_212_" transform="translate(11.316726, 16.285714)" fill="#ACB7CB">
                                    <g id="XMLID_225_">
                                        <path d="M2.19928826,15.9642857 L2.39145907,15.8571429 C-1.55871886,8.7 1.25978648,0.342857143 1.28113879,0.257142857 L1.06761566,0.171428571 C1.04626335,0.257142857 -1.77224199,8.72142857 2.19928826,15.9642857 Z" id="XMLID_226_"></path>
                                    </g>
                                    <g id="XMLID_223_" transform="translate(1.921708, 0.857143)">
                                        <path d="M1.21708185,15.3642857 L1.43060498,15.3 C-0.832740214,8.07857143 0.832740214,0.15 0.854092527,0.0642857143 L0.640569395,0.0214285714 C0.619217082,0.0857142857 -1.06761566,8.07857143 1.21708185,15.3642857 Z" id="XMLID_224_"></path>
                                    </g>
                                    <g id="XMLID_221_" transform="translate(4.056940, 1.285714)">
                                        <path d="M0.725,15.2785714 L1,15.2357143 C-0.3,8.44285714 0.7,0.128571429 0.7,0.0428571429 L0.425,0.0214285714 C0.425,0.107142857 -0.6,8.46428571 0.725,15.2785714 Z" id="XMLID_222_"></path>
                                    </g>
                                    <g id="XMLID_219_" transform="translate(6.192171, 1.285714)">
                                        <rect id="XMLID_220_" x="0.128113879" y="0.192857143" width="1" height="15.15"></rect>
                                    </g>
                                    <g id="XMLID_217_" transform="translate(7.900356, 1.285714)">
                                        <path d="M0.106761566,0.0428571429 C0.128113879,0.128571429 1.47330961,9.57857143 0.213523132,15.15 L0.427046263,15.1928571 C1.70818505,9.57857143 0.341637011,0.107142857 0.341637011,-2.84217094e-14 L0.106761566,0.0428571429 Z" id="XMLID_218_"></path>
                                    </g>
                                    <g id="XMLID_215_" transform="translate(9.608541, 0.857143)">
                                        <path d="M0.298932384,0.0642857143 C0.320284698,0.15 2.13523132,9.6 0.0640569395,15.2571429 L0.277580071,15.3428571 C2.37010676,9.62142857 0.533807829,0.128571429 0.512455516,0.0214285714 L0.298932384,0.0642857143 Z" id="XMLID_216_"></path>
                                    </g>
                                    <g id="XMLID_213_" transform="translate(10.462633, 0.214286)">
                                        <path d="M0.982206406,0.0857142857 C1.00355872,0.171428571 3.62989324,9 0,15.6214286 L0.192170819,15.7285714 C3.86476868,9.02142857 1.21708185,0.107142857 1.19572954,0.0214285714 L0.982206406,0.0857142857 Z" id="XMLID_214_"></path>
                                    </g>
                                </g>
                                <path d="M11.4234875,0.878571429 C11.4234875,0.878571429 11.1672598,1.43571429 11.1672598,1.58571429 C11.1672598,1.58571429 10.975089,1.39285714 10.8896797,1.32857143 C10.8896797,1.35 11.2313167,0.878571429 11.4234875,0.878571429 Z" id="XMLID_211_" fill="#FFFFFF"></path>
                                <path d="M10.4199288,2.27142857 C10.4199288,2.27142857 10.6761566,2.03571429 10.8469751,2.03571429 C10.8469751,2.03571429 10.9964413,1.99285714 11.0177936,2.14285714 L10.9964413,2.44285714 C10.9964413,2.46428571 10.5053381,2.29285714 10.4199288,2.27142857 Z" id="XMLID_210_" fill="#FFFFFF"></path>
                                <path d="M9.5658363,2.46428571 C9.5658363,2.46428571 9.90747331,2.87142857 10.0569395,2.93571429 C10.0569395,2.93571429 9.86476868,3.27857143 9.886121,3.42857143 C9.886121,3.42857143 9.41637011,3.27857143 9.20284698,3.36428571 C9.20284698,3.36428571 9.33096085,2.95714286 9.52313167,2.95714286 L9.5658363,2.46428571 Z" id="XMLID_209_" fill="#FFFFFF"></path>
                                <path d="M11.9786477,1.05 C11.9786477,1.05 12.1281139,0.814285714 12.3843416,0.942857143 C12.3843416,0.942857143 12.7686833,1.22142857 12.7900356,1.47857143 C12.7900356,1.47857143 12.2348754,1.41428571 12.1067616,1.35 C12.0854093,1.35 11.9145907,1.28571429 11.9786477,1.05 Z" id="XMLID_208_" fill="#FFFFFF"></path>
                                <path d="M13.4733096,1.56428571 C13.4733096,1.56428571 13.6227758,1.90714286 13.6654804,2.05714286 C13.6654804,2.05714286 14.0498221,1.86428571 14.1565836,1.86428571 C14.1565836,1.86428571 13.9644128,1.60714286 13.4733096,1.56428571 Z" id="XMLID_207_" fill="#FFFFFF"></path>
                                <path d="M12.4483986,2.52857143 C12.4483986,2.52857143 13.0676157,4.28571429 14.0711744,4.41428571 C14.0711744,4.41428571 13.1316726,3.27857143 13.0035587,2.85 C13.0035587,2.85 12.5551601,2.63571429 12.4483986,2.52857143 Z" id="XMLID_206_" fill="#FFFFFF"></path>
                                <path d="M13.6868327,2.85 C13.6868327,2.85 14.0711744,4.11428571 15.3096085,3.96428571 C15.3096085,3.96428571 13.8576512,3 13.6868327,2.85 Z" id="XMLID_205_" fill="#FFFFFF"></path>
                                <path d="M14.455516,2.42142857 C14.455516,2.42142857 14.6690391,2.27142857 14.9466192,2.48571429 C14.9466192,2.48571429 15.480427,2.97857143 15.5231317,3.06428571 C15.544484,3.06428571 14.3701068,3.04285714 14.455516,2.42142857 Z" id="XMLID_204_" fill="#FFFFFF"></path>
                                <path d="M15.202847,4.37142857 L16.0142349,4.37142857 C16.0142349,4.37142857 15.8647687,4.60714286 15.5871886,4.65 C15.6085409,4.65 15.2669039,4.58571429 15.202847,4.37142857 Z" id="XMLID_203_" fill="#FFFFFF"></path>
                                <path d="M15.8647687,5.20714286 L16.3558719,5.18571429 C16.3558719,5.18571429 16.3985765,5.44285714 16.5480427,5.63571429 C16.5480427,5.61428571 16.0996441,5.52857143 15.8647687,5.20714286 Z" id="XMLID_202_" fill="#FFFFFF"></path>
                                <path d="M15.8434164,5.97857143 C15.8434164,5.97857143 16.3558719,6.25714286 16.569395,6.3 C16.569395,6.3 16.1637011,6.45 16.0569395,6.49285714 C16.0569395,6.51428571 15.9074733,6.23571429 15.8434164,5.97857143 Z" id="XMLID_201_" fill="#FFFFFF"></path>
                                <path d="M13.430605,5.07857143 C13.430605,5.07857143 14.2633452,5.55 14.7330961,5.57142857 L14.86121,6.17142857 C14.86121,6.19285714 14.0071174,6.02142857 13.430605,5.07857143 Z" id="XMLID_200_" fill="#FFFFFF"></path>
                                <path d="M13.3238434,6.34285714 C13.3238434,6.34285714 15.0106762,6.72857143 15.5658363,6.66428571 L15.7366548,7.26428571 C15.7366548,7.26428571 15.1174377,7.05 14.8185053,7.02857143 C14.8185053,7.02857143 14.8185053,7.28571429 14.8825623,7.41428571 C14.86121,7.39285714 13.7508897,7.09285714 13.3238434,6.34285714 Z" id="XMLID_199_" fill="#FFFFFF"></path>
                                <path d="M15.2669039,7.88571429 L15.6085409,8.52857143 L15.1174377,8.46428571 C15.1174377,8.46428571 15.2669039,8.16428571 15.2669039,7.88571429 Z" id="XMLID_198_" fill="#FFFFFF"></path>
                                <path d="M13.7081851,7.69285714 C13.7081851,7.69285714 14.4341637,7.82142857 14.8185053,7.95 C14.8185053,7.95 14.7117438,8.4 14.7758007,8.55 C14.7758007,8.52857143 14.2846975,8.37857143 13.7081851,7.69285714 Z" id="XMLID_197_" fill="#FFFFFF"></path>
                                <path d="M12.2989324,6.04285714 C12.2989324,6.04285714 12.9608541,7.02857143 13.1103203,7.17857143 C13.1103203,7.17857143 12.8113879,7.05 12.6405694,6.96428571 C12.6405694,6.96428571 12.5765125,7.28571429 12.6192171,7.41428571 C12.6405694,7.39285714 12.1921708,7.05 12.2989324,6.04285714 Z" id="XMLID_196_" fill="#FFFFFF"></path>
                                <path d="M11.5302491,6.10714286 C11.5302491,6.10714286 11.8291815,6.25714286 11.7224199,6.42857143 C11.7224199,6.42857143 11.316726,6.83571429 11.2099644,6.96428571 C11.2099644,6.94285714 11.0604982,6.12857143 11.5302491,6.10714286 Z" id="XMLID_195_" fill="#FFFFFF"></path>
                                <path d="M11.4875445,3.94285714 C11.4875445,3.94285714 11.8932384,4.17857143 11.9572954,4.84285714 C11.9572954,4.84285714 11.7651246,4.5 11.4875445,4.5 C11.4875445,4.5 11.5729537,4.07142857 11.4875445,3.94285714 Z" id="XMLID_194_" fill="#FFFFFF"></path>
                                <path d="M12.0640569,3.19285714 L11.8078292,3.51428571 C11.8078292,3.51428571 12.5338078,4.67142857 12.5978648,4.99285714 C12.5978648,4.99285714 12.6405694,4.26428571 12.7259786,4.17857143 C12.7259786,4.17857143 12.4911032,4.09285714 12.4270463,4.02857143 C12.4270463,4.02857143 12.405694,3.77142857 12.5338078,3.72857143 C12.5338078,3.72857143 12.1708185,3.72857143 12.0640569,3.19285714 Z" id="XMLID_193_" fill="#FFFFFF"></path>
                                <path d="M7.70818505,3.87857143 C7.70818505,3.87857143 7.38790036,4.00714286 7.38790036,4.35 C7.38790036,4.35 7.3024911,4.62857143 7.68683274,4.58571429 C7.68683274,4.58571429 7.60142349,4.05 7.70818505,3.87857143 Z" id="XMLID_192_" fill="#FFFFFF"></path>
                                <path d="M8.00711744,4.02857143 C8.00711744,4.02857143 7.81494662,4.52142857 8.04982206,4.52142857 C8.04982206,4.52142857 8.113879,4.54285714 8.17793594,4.45714286 C8.17793594,4.47857143 8.02846975,4.17857143 8.00711744,4.02857143 Z" id="XMLID_191_" fill="#FFFFFF"></path>
                                <path d="M9.30960854,5.18571429 C9.30960854,5.18571429 9.54448399,5.35714286 9.62989324,5.44285714 C9.62989324,5.44285714 9.22419929,5.7 9.03202847,5.78571429 C9.01067616,5.78571429 9.26690391,5.37857143 9.30960854,5.18571429 Z" id="XMLID_190_" fill="#FFFFFF"></path>
                                <path d="M9.50177936,4.60714286 C9.50177936,4.60714286 10.4626335,4.69285714 10.3131673,6.04285714 C10.3131673,6.04285714 10.8042705,5.85 10.8683274,5.55 C10.8683274,5.55 11.0391459,5.61428571 11.1459075,5.61428571 L11.2099644,5.35714286 L11.4234875,5.44285714 L11.3594306,4.95 C11.3594306,4.95 10.911032,5.37857143 10.7402135,5.42142857 C10.7829181,5.42142857 10.3131673,4.39285714 9.50177936,4.60714286 Z" id="XMLID_189_" fill="#FFFFFF"></path>
                                <path d="M10.5480427,8.82857143 C10.5480427,8.82857143 10.633452,7.97142857 11.0604982,8.03571429 C11.0604982,8.03571429 11.2099644,8.1 11.2313167,8.16428571 C11.2313167,8.16428571 11.658363,7.41428571 11.7651246,7.41428571 L11.8078292,7.5 L11.6156584,8.44285714 L12.2989324,8.16428571 L12.9395018,8.7 L13.2811388,8.42142857 L14.0711744,9.21428571 L14.2846975,8.78571429 L14.7330961,9.38571429 C14.7330961,9.38571429 14.8825623,9.42857143 14.9679715,9.40714286 C14.9679715,9.40714286 15.2455516,8.89285714 15.5231317,8.97857143 L15.9928826,9.17142857 L15.9715302,7.88571429 L16.5907473,7.86428571 L16.633452,6.96428571 L17.4661922,6.66428571 L17.7010676,6.79285714 L16.9537367,7.22142857 L17.0818505,8.12142857 C17.0818505,8.12142857 16.5053381,8.25 16.3985765,8.35714286 L16.4839858,9.6 L15.2241993,9.66428571 C15.2241993,9.66428571 15.0747331,9.96428571 15.0960854,10.2857143 C15.0960854,10.2857143 14.6476868,10.0071429 14.2846975,9.62142857 C14.2846975,9.62142857 14.1352313,9.83571429 14.113879,9.96428571 L13.366548,9.23571429 L13.0035587,9.53571429 L12.0640569,8.63571429 L10.9964413,9.21428571 L10.975089,8.67857143 C10.9964413,8.65714286 10.6975089,8.76428571 10.5480427,8.82857143 Z" id="XMLID_188_" fill="#FFFFFF"></path>
                                <path d="M10.1423488,10.1357143 L10.1209964,9.72857143 C10.1209964,9.72857143 9.33096085,10.2214286 8.64768683,10.9714286 C8.64768683,10.9714286 7.83629893,11.8928571 7.49466192,12.1285714 C7.49466192,12.1285714 6.76868327,12.6857143 6.38434164,12.8785714 C6.38434164,12.8785714 5.5088968,13.2428571 5.29537367,13.5 C5.29537367,13.5 5.93594306,13.2428571 6.21352313,13.1785714 C6.21352313,13.1785714 6.72597865,13.05 7.21708185,12.6214286 C7.21708185,12.6214286 8.34875445,11.6142857 8.58362989,11.4214286 C8.58362989,11.4428571 9.75800712,10.3285714 10.1423488,10.1357143 Z" id="XMLID_187_" fill="#FFFFFF"></path>
                                <path d="M12.1281139,10.2 C12.1281139,10.2 12.4270463,9.85714286 12.2135231,9.64285714 C12.2135231,9.64285714 12.0854093,9.57857143 11.8932384,9.72857143 C11.8932384,9.72857143 11.5302491,9.79285714 11.4448399,9.57857143 C11.4448399,9.57857143 10.4626335,10.2857143 9.82206406,10.8428571 C9.82206406,10.8428571 8.81850534,11.6571429 8.56227758,11.8714286 C8.56227758,11.8714286 7.75088968,12.4714286 7.34519573,12.9642857 C7.34519573,12.9642857 6.79003559,13.3071429 6.34163701,13.4357143 C6.34163701,13.4357143 5.29537367,13.6714286 5.27402135,13.9071429 C5.27402135,13.9071429 6.46975089,13.95 6.8113879,13.7571429 C6.8113879,13.7571429 7.9430605,12.8142857 8.02846975,12.7285714 C8.02846975,12.7285714 9.37366548,11.5714286 10.0142349,11.25 C10.0142349,11.25 11.2740214,10.6071429 11.6370107,10.5214286 C11.658363,10.5428571 11.9786477,10.3928571 12.1281139,10.2 Z" id="XMLID_186_" fill="#FFFFFF"></path>
                                <path d="M14.6476868,10.5214286 C14.6476868,10.5214286 15.4590747,10.65 15.6725979,10.5642857 C15.6725979,10.5642857 15.6512456,10.0285714 16.0142349,10.0071429 C16.0142349,10.0071429 16.2704626,9.96428571 16.3772242,10.3714286 C16.3772242,10.3714286 16.3985765,10.5214286 16.5480427,10.5 C16.5480427,10.5 16.8042705,10.65 17.2740214,9.75 C17.2740214,9.75 20.5409253,9.15 21.5658363,8.55 C21.5658363,8.55 20.1352313,9.96428571 17.7651246,10.6071429 C17.7651246,10.6071429 15.7793594,11.1 14.5409253,10.6928571 L14.6476868,10.5214286 Z" id="XMLID_185_" fill="#FFFFFF"></path>
                                <path d="M18.1708185,7.65 C18.1708185,7.65 17.8718861,7.95 17.8718861,8.20714286 C17.8718861,8.20714286 18.4911032,8.22857143 19.1743772,7.92857143 C19.1743772,7.92857143 20.9679715,7.00714286 22.1850534,7.07142857 C22.1850534,7.07142857 21.4377224,6.49285714 19.9857651,7.05 C19.9857651,7.07142857 18.7046263,7.58571429 18.1708185,7.65 Z" id="XMLID_184_" fill="#FFFFFF"></path>
                                <path d="M22.0142349,6.19285714 C22.0142349,6.19285714 23.5516014,5.20714286 25.9857651,5.42142857 L26.1992883,5.87142857 C26.1992883,5.87142857 23.1459075,5.91428571 22.0142349,6.19285714 Z" id="XMLID_183_" fill="#FFFFFF"></path>
                                <path d="M24.2562278,6.62142857 C24.2562278,6.62142857 26.7544484,5.78571429 27.0960854,8.35714286 C27.0960854,8.33571429 25.4092527,6.9 24.2562278,6.62142857 Z" id="XMLID_182_" fill="#FFFFFF"></path>
                                <path d="M27.1601423,5.89285714 C27.1601423,5.89285714 27.1601423,6.45 27.0747331,6.57857143 C27.0747331,6.57857143 27.7366548,6.51428571 27.7793594,6.6 C27.8007117,6.6 27.4377224,5.97857143 27.1601423,5.89285714 Z" id="XMLID_181_" fill="#FFFFFF"></path>
                                <path d="M24.6405694,9.12857143 C24.6405694,9.12857143 25.5160142,9.47142857 25.6441281,9.70714286 C25.6441281,9.70714286 24.9181495,10.2 24.7686833,10.4357143 C24.7686833,10.4357143 24.3843416,9.98571429 23.9572954,10.2642857 C23.9572954,10.2642857 24.2989324,9.34285714 24.6405694,9.12857143 Z" id="XMLID_180_" fill="#FFFFFF"></path>
                                <path d="M26.4982206,9.94285714 C26.4982206,9.94285714 26.5836299,10.9071429 27.2882562,11.0571429 C27.2882562,11.0571429 28.4839858,11.0571429 28.5480427,11.1642857 C28.5480427,11.1642857 28.5480427,10.6714286 27.6939502,10.4571429 C27.6939502,10.4571429 27.0533808,10.4357143 26.4982206,9.94285714 Z" id="XMLID_179_" fill="#FFFFFF"></path>
                                <path d="M22.227758,12.7714286 C22.227758,12.7714286 21.8647687,12.7928571 21.6725979,12.9857143 C21.6725979,12.9857143 21.6085409,13.0928571 21.7153025,13.1357143 C21.7153025,13.1357143 21.8007117,13.2 21.9715302,13.1142857 C21.9715302,13.1142857 22.1637011,12.9 22.227758,12.7714286 Z" id="XMLID_178_" fill="#FFFFFF"></path>
                                <path d="M23.2099644,13.0714286 C23.2099644,13.0714286 22.7829181,13.0285714 22.5266904,13.2428571 C22.5266904,13.2428571 22.3558719,13.4142857 22.5480427,13.4785714 C22.5480427,13.4785714 22.6975089,13.5428571 22.8469751,13.4357143 C22.8469751,13.4357143 23.1032028,13.2214286 23.2099644,13.0714286 Z" id="XMLID_177_" fill="#FFFFFF"></path>
                                <path d="M29.4875445,10.8 C29.4875445,10.8 29.8718861,11.25 29.9145907,11.4428571 C29.9145907,11.4428571 30.0640569,10.8857143 30.1494662,10.8214286 C30.1494662,10.8428571 29.594306,10.8428571 29.4875445,10.8 Z" id="XMLID_176_" fill="#FFFFFF"></path>
                                <path d="M30.4697509,12.9642857 C30.4697509,12.9642857 30.0854093,13.3285714 29.9359431,13.4142857 C29.9359431,13.4142857 29.7010676,13.5857143 29.8291815,13.6928571 C29.8291815,13.6928571 30.4270463,13.8857143 30.4697509,12.9642857 Z" id="XMLID_175_" fill="#FFFFFF"></path>
                                <path d="M29.316726,13.4571429 C29.316726,13.4571429 28.9964413,13.6714286 28.9323843,13.7142857 C28.9323843,13.7142857 29.1245552,14.25 29.316726,13.4571429 Z" id="XMLID_174_" fill="#FFFFFF"></path>
                                <path d="M28.7188612,13.5 C28.7188612,13.5 28.2491103,13.65 28.1637011,13.6928571 C28.1637011,13.6928571 28.4626335,14.1214286 28.7188612,13.5 Z" id="XMLID_173_" fill="#FFFFFF"></path>
                                <path d="M26.7544484,5.12142857 C26.7544484,5.12142857 27.0747331,5.27142857 27.1601423,5.4 C27.1601423,5.4 27.3950178,4.11428571 27.0106762,3.62142857 C27.0106762,3.62142857 27.13879,4.56428571 26.7544484,5.12142857 Z" id="XMLID_172_" fill="#FFFFFF"></path>
                                <path d="M19.6654804,3.79285714 C18.8540925,3.70714286 18.7686833,3.04285714 18.7686833,3.04285714 C18.6405694,2.33571429 19.430605,1.99285714 19.430605,1.99285714 C20.2633452,1.56428571 21.6298932,1.75714286 21.6298932,1.75714286 C23.5088968,2.14285714 23.8291815,1.52142857 23.8291815,1.52142857 C23.3380783,1.67142857 22.2918149,1.45714286 22.2918149,1.45714286 C22.3345196,1.2 23.2099644,1.05 23.2099644,1.05 C23.2099644,1.05 22.227758,0.707142857 21.0106762,1.43571429 C21.0106762,1.43571429 20.8825623,1.47857143 20.6690391,1.5 C20.6690391,1.5 19.6868327,1.62857143 19.3451957,1.8 C19.3451957,1.8 18.4483986,2.18571429 18.5551601,3.02142857 C18.5551601,3.04285714 18.7259786,4.11428571 19.6654804,3.79285714" id="XMLID_171_" fill="#FFFFFF"></path>
                                <g id="XMLID_166_" transform="translate(10.462633, 12.428571)" fill="#ACB7CB" fill-rule="nonzero">
                                    <path d="M1.38790036,1.77857143 C1.38790036,1.8 0.576512456,4.8 0.362989324,6.23571429 C0.362989324,6.27857143 -0.234875445,10.2214286 0.149466192,13.2428571 C0.149466192,13.2857143 0.725978648,17.5071429 3.13879004,20.5928571 C3.18149466,20.6571429 4.27046263,21.7071429 7.3024911,21.7071429 C7.40925267,21.7071429 10.1423488,21.75 11.3807829,20.5928571 C12.5978648,19.4785714 14.3274021,15.1285714 14.3274021,13.2214286 C14.3274021,13.2 14.4341637,12.0857143 14.4341637,10.5857143 C14.4341637,9.27857143 14.3487544,7.67142857 14.0284698,6.23571429 C14.0071174,6.10714286 13.3451957,2.91428571 12.8327402,1.75714286 C12.7900356,1.60714286 12.2562278,0.107142857 7.28113879,0.107142857 C7.06761566,0.107142857 1.75088968,0.0857142857 1.38790036,1.77857143 Z M7.28113879,21.4714286 C4.35587189,21.4714286 3.30960854,20.4428571 3.28825623,20.4214286 C0.939501779,17.4 0.362989324,13.2428571 0.362989324,13.2 C-0.0213523132,10.2 0.576512456,6.3 0.576512456,6.25714286 C0.790035587,4.82142857 1.60142349,1.84285714 1.60142349,1.82142857 C1.87900356,0.578571429 5.78647687,0.321428571 7.28113879,0.321428571 C12.1921708,0.321428571 12.5978648,1.8 12.5978648,1.82142857 L12.5978648,1.84285714 L12.5978648,1.86428571 C13.1103203,3 13.772242,6.25714286 13.7935943,6.3 C14.4768683,9.36428571 14.0925267,13.2 14.0711744,13.2428571 C14.0711744,15.0857143 12.341637,19.3928571 11.1886121,20.4642857 C10.0355872,21.5142857 7.32384342,21.4714286 7.28113879,21.4714286 Z" id="XMLID_167_"></path>
                                </g>
                                <path d="M19.1103203,16.8857143 C19.1103203,17.0357143 18.9822064,17.1642857 18.8327402,17.1642857 C18.683274,17.1642857 18.5551601,17.0357143 18.5551601,16.8857143 C18.5551601,16.7357143 18.683274,16.6071429 18.8327402,16.6071429 C19.0035587,16.6285714 19.1103203,16.7357143 19.1103203,16.8857143 Z" id="XMLID_165_" fill="#ACB7CB"></path>
                                <path d="M19.8576512,16.8 C19.8576512,16.95 19.7295374,17.0785714 19.5800712,17.0785714 C19.430605,17.0785714 19.3024911,16.95 19.3024911,16.8 C19.3024911,16.65 19.430605,16.5214286 19.5800712,16.5214286 C19.7295374,16.5428571 19.8576512,16.65 19.8576512,16.8 Z" id="XMLID_164_" fill="#ACB7CB"></path>
                                <path d="M19.4519573,16.05 C19.4519573,16.05 20.2419929,16.0928571 20.3487544,16.6928571 C20.3487544,16.6928571 20.4768683,17.4 19.5587189,17.5714286 L20.6476868,17.3571429 C20.6476868,17.3571429 20.9679715,17.2285714 20.9252669,16.5428571 C20.9252669,16.5428571 20.7544484,15.8571429 20.4341637,15.8571429 L19.4519573,16.05 Z" id="XMLID_163_" fill="#ACB7CB"></path>
                                <path d="M16.5907473,33.4071429 C16.5907473,33.5571429 16.4626335,33.6857143 16.3131673,33.6857143 C16.1637011,33.6857143 16.0355872,33.5571429 16.0355872,33.4071429 C16.0355872,33.2571429 16.1637011,33.1285714 16.3131673,33.1285714 C16.4626335,33.15 16.5907473,33.2571429 16.5907473,33.4071429 Z" id="XMLID_162_" fill="#ACB7CB"></path>
                                <path d="M17.3380783,33.4714286 C17.3380783,33.6214286 17.2099644,33.75 17.0604982,33.75 C16.911032,33.75 16.7829181,33.6214286 16.7829181,33.4714286 C16.7829181,33.3214286 16.911032,33.1928571 17.0604982,33.1928571 C17.2099644,33.2142857 17.3380783,33.3214286 17.3380783,33.4714286 Z" id="XMLID_161_" fill="#ACB7CB"></path>
                                <path d="M16.0996441,32.8285714 C16.0996441,32.8285714 15.6725979,32.85 15.6085409,33.2142857 C15.6085409,33.2142857 15.5871886,33.7714286 16.1423488,33.9 L15.0960854,33.6642857 C15.0960854,33.6642857 14.9679715,33.4285714 15.0106762,33.0428571 C15.0106762,33.0428571 15.1174377,32.6571429 15.3736655,32.6785714 L16.0996441,32.8285714 Z" id="XMLID_160_" fill="#ACB7CB"></path>
                                <g id="XMLID_155_" transform="translate(10.462633, 18.214286)">
                                    <path d="M0.491103203,0.492857143 C0.491103203,0.492857143 3.22419929,2.35714286 7.23843416,2.35714286 C7.23843416,2.35714286 11.594306,2.27142857 13.9003559,0.385714286 C13.9003559,0.385714286 14.2206406,1.86428571 14.1779359,2.14285714 C14.1779359,2.14285714 11.0391459,3.94285714 7.21708185,3.94285714 C7.21708185,3.94285714 3.0747331,4.02857143 0.256227758,2.22857143 L0.491103203,0.492857143 Z" id="XMLID_159_" fill="#FFFFFF"></path>
                                    <path d="M13.8149466,0.3 C11.5516014,2.12142857 7.25978648,2.22857143 7.21708185,2.25 C3.28825623,2.25 0.576512456,0.407142857 0.533807829,0.407142857 L0.384341637,0.3 L0.128113879,2.29285714 L0.192170819,2.33571429 C3.01067616,4.13571429 7.17437722,4.07142857 7.21708185,4.07142857 C11.0177936,4.07142857 14.1992883,2.27142857 14.2206406,2.25 L14.2633452,2.22857143 L14.2633452,2.16428571 C14.2846975,1.88571429 14.0071174,0.535714286 13.9857651,0.385714286 L13.9430605,0.192857143 L13.8149466,0.3 Z M13.8149466,0.6 C13.9217082,1.13571429 14.0498221,1.84285714 14.0711744,2.07857143 C13.6441281,2.31428571 10.7188612,3.83571429 7.23843416,3.83571429 C7.19572954,3.83571429 3.16014235,3.9 0.40569395,2.16428571 C0.427046263,2.03571429 0.555160142,0.964285714 0.597864769,0.685714286 C1.23843416,1.07142857 3.77935943,2.48571429 7.23843416,2.48571429 C7.40925267,2.46428571 11.4661922,2.35714286 13.8149466,0.6 Z" id="XMLID_156_" fill="#ACB7CB" fill-rule="nonzero"></path>
                                </g>
                                <path d="M19.5587189,21.2571429 C19.5587189,21.4071429 19.430605,21.5357143 19.2811388,21.5357143 C19.1316726,21.5357143 19.0035587,21.4071429 19.0035587,21.2571429 C19.0035587,21.1071429 19.1316726,20.9785714 19.2811388,20.9785714 C19.430605,20.9785714 19.5587189,21.1071429 19.5587189,21.2571429 Z" id="XMLID_154_" fill="#ACB7CB"></path>
                                <path d="M20.3274021,21.1285714 C20.3274021,21.2785714 20.1992883,21.4071429 20.0498221,21.4071429 C19.9003559,21.4071429 19.772242,21.2785714 19.772242,21.1285714 C19.772242,20.9785714 19.9003559,20.85 20.0498221,20.85 C20.2206406,20.85 20.3274021,20.9785714 20.3274021,21.1285714 Z" id="XMLID_153_" fill="#ACB7CB"></path>
                                <path d="M19.9857651,20.3357143 C19.9857651,20.3357143 20.7758007,20.3785714 20.8825623,20.9785714 C20.8825623,20.9785714 21.0106762,21.6857143 20.0925267,21.8571429 L21.1814947,21.6428571 C21.1814947,21.6428571 21.5017794,21.5142857 21.4590747,20.8285714 C21.4590747,20.8285714 21.2882562,20.1428571 20.9679715,20.1428571 L19.9857651,20.3357143 Z" id="XMLID_152_" fill="#ACB7CB"></path>
                                <g id="XMLID_148_" transform="translate(16.227758, 23.142857)">
                                    <path d="M2.88256228,1.56428571 C2.88256228,2.35714286 2.24199288,3 1.4519573,3 C0.661921708,3 0.0213523132,2.35714286 0.0213523132,1.56428571 C0.0213523132,0.771428571 0.661921708,0.128571429 1.4519573,0.128571429 C2.24199288,0.15 2.88256228,0.771428571 2.88256228,1.56428571 Z" id="XMLID_151_" fill="#ACB7CB"></path>
                                    <path d="M2.37010676,1.56428571 C2.37010676,2.07857143 1.96441281,2.48571429 1.4519573,2.48571429 C0.939501779,2.48571429 0.533807829,2.07857143 0.533807829,1.56428571 C0.533807829,1.05 0.939501779,0.642857143 1.4519573,0.642857143 C1.96441281,0.642857143 2.37010676,1.07142857 2.37010676,1.56428571 Z" id="XMLID_150_" fill="#FFFFFF"></path>
                                    <path d="M1.9430605,1.56428571 C1.9430605,1.82142857 1.72953737,2.03571429 1.47330961,2.03571429 C1.21708185,2.03571429 1.00355872,1.82142857 1.00355872,1.56428571 C1.00355872,1.30714286 1.21708185,1.09285714 1.47330961,1.09285714 C1.72953737,1.09285714 1.9430605,1.30714286 1.9430605,1.56428571 Z" id="XMLID_149_" fill="#ACB7CB"></path>
                                </g>
                                <g id="XMLID_143_" transform="translate(10.462633, 25.714286)">
                                    <path d="M0.362989324,0.407142857 C0.362989324,0.407142857 2.90391459,2.55 7.23843416,2.55 C7.23843416,2.55 11.316726,2.57142857 14.1565836,0.364285714 C14.1565836,0.364285714 13.9430605,1.86428571 13.6227758,2.55 C13.6227758,2.55 10.6120996,4.17857143 7.21708185,4.17857143 C7.21708185,4.17857143 3.75800712,4.26428571 0.87544484,2.59285714 L0.362989324,0.407142857 Z" id="XMLID_147_" fill="#FFFFFF"></path>
                                    <path d="M0.790035587,2.67857143 L0.832740214,2.7 C3.71530249,4.37142857 7.19572954,4.30714286 7.23843416,4.30714286 C10.6120996,4.30714286 13.6654804,2.67857143 13.6868327,2.65714286 L13.7295374,2.63571429 L13.7508897,2.59285714 C14.0711744,1.90714286 14.2846975,0.45 14.2846975,0.385714286 L14.3274021,0.107142857 L14.113879,0.278571429 C11.3380783,2.44285714 7.3024911,2.44285714 7.25978648,2.44285714 C3.03202847,2.44285714 0.491103203,0.342857143 0.46975089,0.321428571 L0.192170819,0.0857142857 L0.790035587,2.67857143 Z M14.0071174,0.621428571 C13.9217082,1.07142857 13.772242,1.97142857 13.5373665,2.46428571 C13.1957295,2.63571429 10.3558719,4.07142857 7.21708185,4.07142857 C7.17437722,4.07142857 3.80071174,4.13571429 0.982206406,2.52857143 C0.960854093,2.44285714 0.640569395,1.13571429 0.533807829,0.707142857 C1.28113879,1.24285714 3.67259786,2.7 7.21708185,2.7 C7.25978648,2.67857143 11.1672598,2.65714286 14.0071174,0.621428571 Z" id="XMLID_144_" fill="#ACB7CA" fill-rule="nonzero"></path>
                                </g>
                                <path d="M15.8220641,28.9285714 C15.8220641,29.0785714 15.6939502,29.2071429 15.544484,29.2071429 C15.3950178,29.2071429 15.2669039,29.0785714 15.2669039,28.9285714 C15.2669039,28.7785714 15.3950178,28.65 15.544484,28.65 C15.7153025,28.65 15.8220641,28.7785714 15.8220641,28.9285714 Z" id="XMLID_142_" fill="#ACB7CA"></path>
                                <path d="M16.6120996,29.0142857 C16.6120996,29.1642857 16.4839858,29.2928571 16.3345196,29.2928571 C16.1850534,29.2928571 16.0569395,29.1642857 16.0569395,29.0142857 C16.0569395,28.8642857 16.1850534,28.7357143 16.3345196,28.7357143 C16.4839858,28.7571429 16.6120996,28.8642857 16.6120996,29.0142857 Z" id="XMLID_141_" fill="#ACB7CA"></path>
                                <path d="M15.6939502,28.1142857 C15.6939502,28.1142857 14.9466192,28.1571429 14.7758007,28.7571429 C14.7758007,28.7571429 14.6049822,29.5285714 15.6298932,29.7214286 L14.3060498,29.4642857 C14.3060498,29.4642857 14.0711744,29.1857143 14.1779359,28.6285714 C14.1779359,28.6285714 14.3274021,28.0714286 14.6690391,27.9 L15.6939502,28.1142857 Z" id="XMLID_140_" fill="#ACB7CA"></path>
                            </g>
                        </g>
                        <g id="Grupo-Modelo" transform="translate(2.775801, 2.357143)" fill="#A1ADC0">
                            <path d="M3.52313167,22.4357143 L2.45551601,22.2 L3.05338078,19.4785714 C3.09608541,19.4785714 3.11743772,19.5 3.16014235,19.5 C3.20284698,19.5 3.26690391,19.5214286 3.35231317,19.5428571 C4.22775801,19.7357143 4.84697509,20.1214286 5.23131673,20.7 C5.61565836,21.2785714 5.70106762,21.9642857 5.5088968,22.8214286 C5.42348754,23.2285714 5.27402135,23.5928571 5.08185053,23.8714286 C4.88967972,24.1714286 4.63345196,24.4071429 4.33451957,24.6 C4.03558719,24.7928571 3.71530249,24.9 3.35231317,24.9642857 C2.98932384,25.0285714 2.62633452,25.0071429 2.2633452,24.9214286 C1.87900356,24.8357143 1.55871886,24.6857143 1.25978648,24.4928571 C0.982206406,24.3 0.725978648,24.0428571 0.533807829,23.7214286 C0.341637011,23.4214286 0.213523132,23.0785714 0.170818505,22.7142857 C0.128113879,22.35 0.128113879,21.9857143 0.213523132,21.6 C0.320284698,21.1071429 0.512455516,20.6785714 0.8113879,20.3357143 C1.08896797,19.9928571 1.4519573,19.7357143 1.90035587,19.5642857 L2.19928826,20.8928571 C1.96441281,21 1.79359431,21.1285714 1.66548043,21.2785714 C1.53736655,21.4285714 1.43060498,21.6214286 1.38790036,21.8571429 C1.3024911,22.2642857 1.36654804,22.6285714 1.58007117,22.9285714 C1.79359431,23.2285714 2.15658363,23.4428571 2.62633452,23.55 C3.11743772,23.6571429 3.52313167,23.6142857 3.84341637,23.4428571 C4.16370107,23.2714286 4.3772242,22.9714286 4.48398577,22.5642857 C4.56939502,22.2214286 4.5480427,21.9 4.41992883,21.6214286 C4.29181495,21.3428571 4.09964413,21.15 3.82206406,21.0642857 L3.52313167,22.4357143 Z" id="XMLID_136_"></path>
                            <path d="M6.53380783,18.9857143 L1.92170819,16.5857143 L2.60498221,15.2785714 C2.88256228,14.7642857 3.0747331,14.4214286 3.22419929,14.25 C3.37366548,14.0785714 3.54448399,13.9285714 3.7366548,13.8428571 C3.95017794,13.7357143 4.18505338,13.6928571 4.41992883,13.7142857 C4.65480427,13.7357143 4.88967972,13.8 5.12455516,13.9071429 C5.48754448,14.1 5.72241993,14.3357143 5.85053381,14.6357143 C5.97864769,14.9357143 6,15.2571429 5.89323843,15.6428571 L8.41281139,15.3642857 L7.66548043,16.7785714 L5.31672598,16.8857143 L7.11032028,17.8285714 L6.53380783,18.9857143 Z M4.71886121,16.5428571 L4.84697509,16.3071429 C4.99644128,16.0285714 5.03914591,15.8142857 5.01779359,15.6428571 C4.99644128,15.4714286 4.8683274,15.3428571 4.67615658,15.2357143 C4.44128114,15.1071429 4.24911032,15.0857143 4.09964413,15.15 C3.95017794,15.2142857 3.80071174,15.3857143 3.65124555,15.6642857 L3.52313167,15.9214286 L4.71886121,16.5428571 Z" id="XMLID_133_" fill-rule="nonzero"></path>
                            <path d="M5.08185053,11.1214286 L6.02135231,10.0714286 L7.90035587,11.7642857 C8.17793594,12.0214286 8.39145907,12.1928571 8.51957295,12.2785714 C8.64768683,12.3642857 8.77580071,12.4285714 8.88256228,12.4714286 C9.01067616,12.5142857 9.16014235,12.5142857 9.28825623,12.4714286 C9.43772242,12.4071429 9.5658363,12.3214286 9.69395018,12.1714286 C9.82206406,12.0214286 9.90747331,11.8714286 9.95017794,11.7428571 C9.99288256,11.5928571 9.97153025,11.4642857 9.90747331,11.3357143 C9.86476868,11.2285714 9.77935943,11.1214286 9.67259786,10.9928571 C9.5658363,10.8642857 9.37366548,10.6928571 9.09608541,10.4357143 L8.83985765,10.2 L7.21708185,8.74285714 L8.15658363,7.69285714 L10.2064057,9.53571429 C10.633452,9.92142857 10.9323843,10.2214286 11.0818505,10.4571429 C11.2313167,10.6928571 11.3380783,10.9285714 11.3594306,11.1857143 C11.4021352,11.4642857 11.3594306,11.7428571 11.2313167,12.0428571 C11.1032028,12.3428571 10.8896797,12.6642857 10.5907473,12.9857143 C10.2918149,13.3285714 10.0142349,13.5642857 9.71530249,13.7357143 C9.43772242,13.8857143 9.16014235,13.9714286 8.88256228,13.9714286 C8.62633452,13.9714286 8.39145907,13.8857143 8.13523132,13.7571429 C7.87900356,13.6285714 7.55871886,13.3714286 7.1316726,12.9857143 L6.72597865,12.6214286 L5.08185053,11.1214286 Z" id="XMLID_131_"></path>
                            <path d="M14.2633452,9.49285714 L13.1743772,10.2428571 L10.2491103,5.91428571 L11.4661922,5.07857143 C11.9359431,4.75714286 12.2989324,4.54285714 12.5124555,4.45714286 C12.747331,4.37142857 12.9608541,4.35 13.1743772,4.37142857 C13.430605,4.39285714 13.6441281,4.47857143 13.8790036,4.62857143 C14.0925267,4.77857143 14.2846975,4.95 14.455516,5.20714286 C14.6263345,5.46428571 14.7330961,5.72142857 14.797153,5.97857143 C14.8398577,6.23571429 14.8398577,6.47142857 14.7544484,6.70714286 C14.6903915,6.87857143 14.6049822,7.05 14.455516,7.2 C14.3274021,7.35 14.0711744,7.54285714 13.7081851,7.8 L13.5160142,7.92857143 L13.3024911,8.07857143 L14.2633452,9.49285714 Z M12.6619217,7.11428571 L12.8754448,6.96428571 C13.1530249,6.77142857 13.3238434,6.6 13.3879004,6.45 C13.4519573,6.3 13.4092527,6.12857143 13.2811388,5.93571429 C13.1530249,5.76428571 13.024911,5.65714286 12.8540925,5.65714286 C12.683274,5.65714286 12.4697509,5.74285714 12.1921708,5.93571429 L11.9572954,6.08571429 L12.6619217,7.11428571 Z" id="XMLID_128_" fill-rule="nonzero"></path>
                            <path d="M21.5231317,3.27857143 C21.6512456,3.64285714 21.6939502,3.98571429 21.6725979,4.35 C21.6512456,4.71428571 21.5658363,5.05714286 21.3950178,5.37857143 C21.2241993,5.7 21.0106762,6 20.7330961,6.23571429 C20.455516,6.47142857 20.1352313,6.66428571 19.7935943,6.77142857 C19.4519573,6.9 19.088968,6.94285714 18.7259786,6.92142857 C18.3629893,6.9 18.0213523,6.81428571 17.6797153,6.66428571 C17.3380783,6.51428571 17.0604982,6.3 16.8256228,6.02142857 C16.5907473,5.76428571 16.3985765,5.44285714 16.2918149,5.1 C16.1637011,4.75714286 16.1209964,4.39285714 16.1423488,4.02857143 C16.1637011,3.66428571 16.2704626,3.32142857 16.4199288,3 C16.569395,2.67857143 16.8042705,2.37857143 17.0818505,2.14285714 C17.3594306,1.90714286 17.6797153,1.71428571 18.0213523,1.58571429 C18.3629893,1.45714286 18.7259786,1.41428571 19.088968,1.43571429 C19.4519573,1.45714286 19.8149466,1.54285714 20.1352313,1.69285714 C20.455516,1.84285714 20.7544484,2.05714286 20.9893238,2.33571429 C21.2241993,2.63571429 21.4163701,2.93571429 21.5231317,3.27857143 Z M19.4092527,5.63571429 C19.772242,5.50714286 20.0498221,5.27142857 20.1779359,4.90714286 C20.3274021,4.54285714 20.3274021,4.15714286 20.1779359,3.75 C20.0284698,3.34285714 19.7935943,3.04285714 19.4519573,2.85 C19.1103203,2.65714286 18.7686833,2.63571429 18.3843416,2.76428571 C18.0213523,2.89285714 17.7437722,3.12857143 17.6156584,3.49285714 C17.4661922,3.85714286 17.4661922,4.24285714 17.6156584,4.65 C17.7651246,5.07857143 18,5.37857143 18.341637,5.55 C18.683274,5.74285714 19.024911,5.78571429 19.4092527,5.63571429 Z" id="XMLID_125_" fill-rule="nonzero"></path>
                            <path d="M32.1992883,5.78571429 L30.8754448,5.65714286 L30.7686833,3.38571429 C30.7686833,3.23571429 30.747331,3.04285714 30.747331,2.85 C30.747331,2.65714286 30.747331,2.44285714 30.747331,2.20714286 C30.7046263,2.42142857 30.5978648,2.7 30.4697509,3.02142857 C30.4483986,3.08571429 30.4270463,3.12857143 30.405694,3.17142857 L29.4875445,5.55 L28.5480427,5.46428571 L28.0569395,2.97857143 C28.0569395,2.93571429 28.0355872,2.89285714 28.0355872,2.82857143 C27.9715302,2.48571429 27.9288256,2.20714286 27.9074733,1.99285714 C27.886121,2.18571429 27.8434164,2.37857143 27.8007117,2.57142857 C27.7580071,2.76428571 27.7153025,2.95714286 27.6725979,3.15 L27.1601423,5.35714286 L25.8576512,5.22857143 L27.1174377,0.107142857 L28.5053381,0.235714286 L29.0391459,2.97857143 C29.0391459,3 29.0391459,3.02142857 29.0604982,3.06428571 C29.1032028,3.3 29.1459075,3.51428571 29.1459075,3.68571429 C29.1672598,3.6 29.1886121,3.49285714 29.2313167,3.38571429 C29.2740214,3.27857143 29.316726,3.15 29.3807829,3 L30.405694,0.407142857 L31.7935943,0.535714286 L32.1992883,5.78571429 Z" id="XMLID_123_"></path>
                            <path d="M39.2455516,5.85 C39.0960854,6.19285714 38.9039146,6.49285714 38.6476868,6.75 C38.3914591,7.00714286 38.0925267,7.2 37.7508897,7.32857143 C37.4092527,7.45714286 37.0462633,7.52142857 36.683274,7.52142857 C36.3202847,7.52142857 35.9572954,7.43571429 35.6156584,7.30714286 C35.2740214,7.15714286 34.975089,6.96428571 34.7188612,6.70714286 C34.4626335,6.45 34.2704626,6.15 34.1209964,5.80714286 C33.9715302,5.46428571 33.9074733,5.12142857 33.9074733,4.75714286 C33.9074733,4.39285714 33.9715302,4.05 34.1209964,3.70714286 C34.2704626,3.36428571 34.4626335,3.06428571 34.7188612,2.82857143 C34.975089,2.57142857 35.2740214,2.37857143 35.6156584,2.25 C35.9572954,2.12142857 36.2989324,2.05714286 36.6619217,2.05714286 C37.024911,2.05714286 37.3879004,2.14285714 37.7295374,2.27142857 C38.0711744,2.42142857 38.3701068,2.61428571 38.6263345,2.87142857 C38.8825623,3.12857143 39.0960854,3.42857143 39.2241993,3.77142857 C39.3736655,4.11428571 39.4377224,4.45714286 39.4377224,4.82142857 C39.4590747,5.16428571 39.3736655,5.50714286 39.2455516,5.85 Z M36.0854093,6.17142857 C36.4483986,6.32142857 36.8113879,6.32142857 37.1530249,6.15 C37.4946619,5.97857143 37.7508897,5.7 37.9217082,5.29285714 C38.0925267,4.88571429 38.113879,4.5 37.9857651,4.13571429 C37.8576512,3.77142857 37.6227758,3.51428571 37.2597865,3.36428571 C36.8967972,3.21428571 36.5338078,3.21428571 36.1921708,3.38571429 C35.8505338,3.55714286 35.594306,3.83571429 35.4234875,4.24285714 C35.252669,4.65 35.2313167,5.03571429 35.3380783,5.4 C35.4875445,5.76428571 35.7224199,6.02142857 36.0854093,6.17142857 Z" id="XMLID_120_" fill-rule="nonzero"></path>
                            <path d="M39.2882562,8.97857143 L42.5551601,4.92857143 L43.3879004,5.61428571 C44.0071174,6.12857143 44.4341637,6.51428571 44.6476868,6.79285714 C44.86121,7.07142857 45.0106762,7.35 45.0960854,7.65 C45.202847,8.03571429 45.2241993,8.42142857 45.1174377,8.80714286 C45.0320285,9.19285714 44.8398577,9.55714286 44.5409253,9.92142857 C44.2419929,10.2857143 43.9217082,10.5428571 43.5800712,10.7142857 C43.2170819,10.8857143 42.8540925,10.95 42.4483986,10.9285714 C42.1494662,10.9071429 41.8505338,10.8214286 41.5516014,10.6714286 C41.252669,10.5214286 40.8469751,10.2428571 40.3131673,9.81428571 L40.1423488,9.64285714 L39.2882562,8.97857143 Z M41.1032028,8.95714286 L41.2953737,9.10714286 C41.7224199,9.45 42.1067616,9.62142857 42.4483986,9.6 C42.7900356,9.57857143 43.1103203,9.38571429 43.430605,9 C43.7508897,8.61428571 43.8790036,8.25 43.8149466,7.90714286 C43.772242,7.56428571 43.5160142,7.22142857 43.088968,6.87857143 L42.8967972,6.72857143 L41.1032028,8.95714286 Z" id="XMLID_117_" fill-rule="nonzero"></path>
                            <polygon id="XMLID_115_" points="43.7295374 12.9 47.8291815 9.72857143 49.772242 12.2571429 48.8754448 12.9642857 47.7864769 11.5285714 47.0818505 12.0857143 48.1281139 13.4357143 47.252669 14.1214286 46.2064057 12.7714286 45.5231317 13.3071429 46.6120996 14.7428571 45.6939502 15.45"></polygon>
                            <polygon id="XMLID_99_" points="46.3345196 16.5642857 50.9893238 14.25 51.6085409 15.5142857 48.0427046 17.2928571 48.8327402 18.8785714 47.7437722 19.4142857"></polygon>
                            <path d="M51.8434164,24.9214286 C51.480427,25.0071429 51.1174377,25.0071429 50.7758007,24.9428571 C50.4341637,24.8785714 50.0925267,24.75 49.7935943,24.5571429 C49.4946619,24.3642857 49.2170819,24.1071429 49.024911,23.8071429 C48.8113879,23.5071429 48.6619217,23.1642857 48.5978648,22.8214286 C48.5124555,22.4571429 48.5124555,22.0928571 48.5551601,21.7285714 C48.6192171,21.3642857 48.747331,21.0214286 48.9395018,20.7214286 C49.1316726,20.4 49.366548,20.1428571 49.6654804,19.9285714 C49.9644128,19.7142857 50.2846975,19.5857143 50.6476868,19.5 C51.0106762,19.4142857 51.3736655,19.4142857 51.7153025,19.4785714 C52.0569395,19.5428571 52.3985765,19.6714286 52.6975089,19.8857143 C52.9964413,20.0785714 53.252669,20.3357143 53.4661922,20.6357143 C53.6797153,20.9357143 53.8291815,21.2785714 53.8932384,21.6428571 C53.9786477,22.0071429 53.9786477,22.3714286 53.9145907,22.7357143 C53.8505338,23.1 53.7224199,23.4428571 53.5302491,23.7428571 C53.3380783,24.0642857 53.1032028,24.3214286 52.8042705,24.5142857 C52.5266904,24.6857143 52.2064057,24.8357143 51.8434164,24.9214286 Z M49.7508897,22.5428571 C49.8362989,22.9285714 50.0498221,23.2071429 50.3914591,23.4 C50.7330961,23.5928571 51.1174377,23.6357143 51.544484,23.5285714 C51.9715302,23.4428571 52.2918149,23.2285714 52.5266904,22.9071429 C52.7615658,22.5857143 52.8256228,22.2428571 52.7402135,21.8571429 C52.6548043,21.4714286 52.4412811,21.1928571 52.0996441,21 C51.7580071,20.8071429 51.3736655,20.7642857 50.9466192,20.8714286 C50.519573,20.9785714 50.1779359,21.1714286 49.9644128,21.4928571 C49.7295374,21.7928571 49.6654804,22.1571429 49.7508897,22.5428571 Z" id="XMLID_96_" fill-rule="nonzero"></path>
                        </g>
                        <g id="Mexico" transform="translate(11.530249, 47.142857)" fill="#A1ADC0">
                            <path d="M5.29537367,7.41428571 L4.20640569,6.66428571 L5.23131673,4.65 C5.29537367,4.5 5.38078292,4.35 5.48754448,4.17857143 C5.57295374,4.00714286 5.70106762,3.83571429 5.80782918,3.62142857 C5.65836299,3.79285714 5.44483986,3.96428571 5.1886121,4.17857143 C5.12455516,4.22142857 5.08185053,4.26428571 5.06049822,4.28571429 L3.09608541,5.89285714 L2.32740214,5.35714286 L3.13879004,2.95714286 C3.16014235,2.91428571 3.16014235,2.87142857 3.18149466,2.80714286 C3.28825623,2.48571429 3.39501779,2.20714286 3.48042705,2.01428571 C3.35231317,2.16428571 3.22419929,2.31428571 3.09608541,2.46428571 C2.96797153,2.61428571 2.83985765,2.76428571 2.71174377,2.89285714 L1.17437722,4.56428571 L0.0854092527,3.81428571 L3.71530249,1.13686838e-13 L4.8683274,0.792857143 L3.99288256,3.45 C3.99288256,3.47142857 3.97153025,3.49285714 3.97153025,3.53571429 C3.886121,3.77142857 3.82206406,3.96428571 3.7366548,4.11428571 C3.80071174,4.05 3.86476868,3.96428571 3.95017794,3.9 C4.03558719,3.81428571 4.14234875,3.72857143 4.27046263,3.62142857 L6.44839858,1.88571429 L7.60142349,2.7 L5.29537367,7.41428571 Z" id="XMLID_113_"></path>
                            <polygon id="XMLID_111_" points="8.02846975 8.55 9.71530249 3.62142857 12.7259786 4.67142857 12.3629893 5.74285714 10.6548043 5.14285714 10.3558719 6 11.9572954 6.55714286 11.594306 7.60714286 9.99288256 7.05 9.71530249 7.88571429 11.4234875 8.48571429 11.0391459 9.57857143"></polygon>
                            <path d="M16.2491103,6.45 C16.2491103,6.45 16.2491103,6.45 16.2491103,6.45 C16.3345196,6.62142857 16.3772242,6.77142857 16.3772242,6.9 C16.4199288,6.79285714 16.4839858,6.66428571 16.569395,6.53571429 C16.569395,6.51428571 16.5907473,6.51428571 16.5907473,6.49285714 L17.316726,5.33571429 L18.9822064,5.48571429 L17.0391459,7.84285714 L18.7259786,10.6928571 L17.1245552,10.5642857 L16.3772242,8.95714286 C16.3345196,8.89285714 16.3131673,8.80714286 16.2918149,8.74285714 C16.2704626,8.67857143 16.2491103,8.59285714 16.227758,8.52857143 C16.2064057,8.61428571 16.1637011,8.67857143 16.1423488,8.74285714 C16.0996441,8.80714286 16.0782918,8.87142857 16.0355872,8.93571429 L15.0320285,10.3928571 L13.430605,10.2642857 L15.5871886,7.71428571 L14.0498221,5.1 L15.7366548,5.25 L16.2491103,6.45 Z" id="XMLID_109_"></path>
                            <polygon id="XMLID_107_" points="21.4163701 10.3928571 20.7330961 5.22857143 22.1423488 5.03571429 22.8256228 10.2"></polygon>
                            <path d="M27.9501779,3.55714286 L28.4626335,5.01428571 C28.2064057,4.88571429 27.9715302,4.8 27.7580071,4.75714286 C27.544484,4.73571429 27.3309609,4.75714286 27.1174377,4.82142857 C26.7330961,4.95 26.4768683,5.20714286 26.3274021,5.55 C26.1779359,5.89285714 26.1779359,6.27857143 26.3274021,6.70714286 C26.4768683,7.09285714 26.7117438,7.39285714 27.0320285,7.56428571 C27.3736655,7.73571429 27.7153025,7.75714286 28.0996441,7.62857143 C28.3131673,7.56428571 28.4839858,7.43571429 28.633452,7.28571429 C28.7829181,7.13571429 28.911032,6.9 29.0177936,6.64285714 L29.5302491,8.1 C29.3594306,8.27142857 29.1672598,8.42142857 28.975089,8.55 C28.7829181,8.67857143 28.5907473,8.78571429 28.3772242,8.85 C28.0996441,8.93571429 27.8434164,9 27.6085409,9.02142857 C27.3523132,9.04285714 27.1174377,9.02142857 26.8825623,8.95714286 C26.4341637,8.85 26.0498221,8.63571429 25.7081851,8.33571429 C25.3879004,8.03571429 25.1316726,7.65 24.9822064,7.17857143 C24.8540925,6.79285714 24.7900356,6.42857143 24.8113879,6.08571429 C24.8327402,5.74285714 24.9181495,5.4 25.0676157,5.05714286 C25.2170819,4.73571429 25.4092527,4.45714286 25.6654804,4.24285714 C25.9217082,4.02857143 26.2206406,3.83571429 26.5622776,3.72857143 C26.7758007,3.64285714 26.9893238,3.6 27.2241993,3.57857143 C27.4590747,3.51428571 27.7153025,3.51428571 27.9501779,3.55714286 Z" id="XMLID_105_"></path>
                            <path d="M35.1672598,1.73571429 C35.3807829,2.03571429 35.5302491,2.35714286 35.6156584,2.72142857 C35.7010676,3.06428571 35.7010676,3.42857143 35.6370107,3.79285714 C35.5729537,4.15714286 35.4448399,4.5 35.2313167,4.8 C35.0391459,5.1 34.7829181,5.37857143 34.4839858,5.59285714 C34.1850534,5.80714286 33.8434164,5.95714286 33.5017794,6.04285714 C33.13879,6.12857143 32.797153,6.12857143 32.4341637,6.08571429 C32.0711744,6.02142857 31.7295374,5.91428571 31.430605,5.72142857 C31.1316726,5.52857143 30.8754448,5.29285714 30.6619217,4.99285714 C30.4483986,4.69285714 30.2989324,4.37142857 30.2348754,4.00714286 C30.1494662,3.66428571 30.1494662,3.3 30.2135231,2.93571429 C30.2775801,2.57142857 30.405694,2.25 30.5978648,1.92857143 C30.7900356,1.62857143 31.0462633,1.35 31.3451957,1.13571429 C31.6441281,0.921428571 31.9857651,0.771428571 32.3274021,0.685714286 C32.6903915,0.6 33.0533808,0.578571429 33.3950178,0.642857143 C33.7580071,0.707142857 34.0782918,0.814285714 34.3985765,1.00714286 C34.6975089,1.17857143 34.9537367,1.43571429 35.1672598,1.73571429 Z M33.8007117,4.58571429 C34.1209964,4.35 34.2918149,4.05 34.3345196,3.66428571 C34.3772242,3.27857143 34.2704626,2.91428571 34.0142349,2.55 C33.7580071,2.18571429 33.4377224,1.97142857 33.0747331,1.88571429 C32.6903915,1.8 32.3487544,1.86428571 32.0284698,2.07857143 C31.7081851,2.31428571 31.5373665,2.61428571 31.4946619,3 C31.4519573,3.38571429 31.5587189,3.75 31.8149466,4.11428571 C32.0711744,4.47857143 32.3914591,4.71428571 32.7544484,4.8 C33.1174377,4.90714286 33.4590747,4.82142857 33.8007117,4.58571429 Z" id="XMLID_102_" fill-rule="nonzero"></path>
                        </g>
                    </g>
                </g>
            </g>
        </g>
    </g>
</svg>