<?xml version="1.0" encoding="UTF-8"?>
<svg width="108px" height="50px" viewBox="0 0 108 50" version="1.1" xmlns="http://www.w3.org/2000/svg" xmlns:xlink="http://www.w3.org/1999/xlink">
    <!-- Generator: Sketch 52.6 (67491) - http://www.bohemiancoding.com/sketch -->
    <title>GrupoBIMBO_Logo</title>
    <desc>Created with Sketch.</desc>
    <g id="WMS-Landing" stroke="none" stroke-width="1" fill="none" fill-rule="evenodd">
        <g id="Landing-Alpha" transform="translate(-695.000000, -640.000000)">
            <g id="Clients-[Div2]" transform="translate(221.000000, 588.000000)">
                <g id="Logos" transform="translate(0.000000, 47.000000)">
                    <g id="GrupoBIMBO_Logo" transform="translate(474.000000, 5.000000)">
                        <path d="M12.31875,4.40677966 C-4.640625,14.9152542 4.978125,46.0169492 4.978125,46.779661 C26.49375,32.2881356 78.384375,52.7118644 95.765625,43.3050847 C112.89375,33.9830508 103.359375,3.55932203 103.359375,3.55932203 C76.78125,17.0338983 28.6875,-5.76271186 12.31875,4.40677966 Z" id="Path" fill="#FFFFFF"></path>
                        <path d="M104.2875,2.54237288 C104.2875,2.54237288 104.203125,2.54237288 104.2875,2.54237288 L96.8625,0.0847457627 C96.778125,0.0847457627 96.69375,0.0847457627 96.609375,0.0847457627 L96.35625,0 C90.28125,5.50847458 79.228125,6.01694915 66.740625,5.08474576 C61.25625,4.66101695 55.51875,3.98305085 49.78125,3.22033898 C45.73125,2.79661017 41.596875,2.28813559 37.546875,1.94915254 C37.378125,1.94915254 37.125,1.94915254 36.871875,1.86440678 C36.45,1.86440678 35.94375,1.77966102 35.521875,1.77966102 C30.965625,1.3559322 26.6625,1.10169492 22.696875,1.10169492 C11.559375,1.3559322 3.20625,6.77966102 1.18125,22.2881356 C1.18125,22.3728814 1.18125,22.4576271 1.18125,22.4576271 C1.18125,22.5423729 1.18125,22.6271186 1.18125,22.6271186 C-0.3375,35 3.375,48.0508475 3.796875,48.3050847 C3.88125,48.3050847 3.88125,48.3898305 3.965625,48.3898305 L10.125,49.5762712 L10.209375,49.5762712 C10.29375,49.5762712 10.378125,49.5762712 10.4625,49.4915254 C18.9,41.779661 38.64375,43.8135593 57.628125,45.7627119 C67.415625,46.8644068 77.45625,47.8813559 85.725,47.5423729 C87.075,47.4576271 88.340625,47.3728814 89.60625,47.2033898 C100.153125,45.5932203 105.721875,38.8983051 106.9875,26.5254237 C108.421875,13.7288136 104.540625,2.71186441 104.2875,2.54237288 M12.065625,4.91525424 C28.434375,-5.16949153 76.6125,17.3728814 102.9375,4.06779661 C102.9375,4.06779661 112.471875,33.9830508 95.34375,43.1355932 C78.046875,52.4576271 26.071875,32.2881356 4.55625,46.6101695 C4.725,45.9322034 -4.809375,15.2542373 12.065625,4.91525424 M71.71875,46.2711864 C72.05625,46.2711864 72.5625,46.3559322 72.9,46.3559322 C72.5625,46.3559322 72.05625,46.2711864 71.71875,46.2711864" id="Shape" fill="#A5B0C3" fill-rule="nonzero"></path>
                        <path d="M26.578125,25.2542373 C27.928125,24.3220339 28.6875,22.9661017 28.6875,21.1864407 C28.6875,17.6271186 26.409375,15.7627119 21.9375,15.7627119 L12.31875,15.7627119 L12.31875,36.6101695 L22.275,36.6101695 C25.65,36.6101695 29.615625,35 29.615625,30.4237288 C29.615625,27.8813559 28.603125,26.1864407 26.578125,25.2542373 M21.684375,32.2881356 L17.465625,32.2881356 L17.465625,20 L21.09375,20 C23.371875,20 23.625,20.9322034 23.625,21.8644068 C23.625,23.1355932 22.865625,23.8135593 21.43125,23.8135593 L20.165625,23.8135593 L18.39375,27.6271186 L21.76875,27.6271186 C23.625,27.6271186 24.384375,28.3898305 24.384375,30 C24.553125,31.0169492 24.13125,32.2881356 21.684375,32.2881356" id="Shape" fill="#ADB9CC" fill-rule="nonzero"></path>
                        <rect id="Rectangle" fill="#ADB9CC" x="30.88125" y="15.7627119" width="5.23125" height="20.8474576"></rect>
                        <polygon id="Path" fill="#ADB9CC" points="48.6 27.4576271 45.984375 15.6779661 37.8 15.6779661 37.8 36.440678 42.946875 36.440678 42.946875 23.7288136 45.984375 36.440678 51.215625 36.440678 54.253125 23.559322 54.253125 36.440678 59.4 36.440678 59.4 15.6779661 51.215625 15.6779661"></polygon>
                        <path d="M75.6,25.3389831 C76.95,24.4067797 77.709375,23.0508475 77.709375,21.2711864 C77.709375,17.7118644 75.43125,15.8474576 70.959375,15.8474576 L61.340625,15.8474576 L61.340625,36.6949153 L71.296875,36.6949153 C74.671875,36.6949153 78.6375,35.0847458 78.6375,30.5084746 C78.6375,28.0508475 77.540625,26.2711864 75.6,25.3389831 M70.70625,32.3728814 L66.4875,32.3728814 L66.4875,20.2542373 L70.115625,20.2542373 C72.39375,20.2542373 72.646875,21.1864407 72.646875,22.1186441 C72.646875,23.3898305 71.8875,24.0677966 70.453125,24.0677966 L69.271875,24.0677966 L67.33125,27.8813559 L70.70625,27.8813559 C72.5625,27.8813559 73.321875,28.6440678 73.321875,30.2542373 C73.490625,31.1864407 73.153125,32.3728814 70.70625,32.3728814" id="Shape" fill="#ADB9CC" fill-rule="nonzero"></path>
                        <path d="M89.690625,15.5084746 C83.953125,15.5084746 79.3125,20.1694915 79.3125,25.9322034 C79.3125,31.6949153 83.953125,36.3559322 89.690625,36.3559322 C95.428125,36.3559322 100.06875,31.6949153 100.06875,25.9322034 C100.153125,20.2542373 95.5125,15.5084746 89.690625,15.5084746 M89.690625,31.440678 C86.7375,31.440678 84.20625,28.9830508 84.20625,25.9322034 C84.20625,22.8813559 86.653125,20.4237288 89.690625,20.4237288 C92.728125,20.4237288 95.090625,22.8813559 95.090625,25.9322034 C95.175,29.0677966 92.64375,31.440678 89.690625,31.440678" id="Shape" fill="#ADB9CC" fill-rule="nonzero"></path>
                        <g id="Group" transform="translate(11.812500, 6.779661)" fill="#A5B0C3">
                            <path d="M7.340625,6.27118644 C6.91875,6.52542373 6.4125,6.69491525 5.90625,6.77966102 C5.4,6.86440678 4.89375,6.94915254 4.3875,6.94915254 C3.88125,6.94915254 3.375,6.86440678 2.86875,6.69491525 C2.446875,6.52542373 2.025,6.27118644 1.6875,6.01694915 C1.35,5.6779661 1.096875,5.33898305 0.928125,4.91525424 C0.759375,4.49152542 0.675,3.98305085 0.675,3.47457627 C0.675,2.96610169 0.759375,2.45762712 0.928125,2.03389831 C1.096875,1.61016949 1.35,1.27118644 1.6875,0.93220339 C2.025,0.593220339 2.446875,0.423728814 2.86875,0.254237288 C3.459375,0.0847457627 3.965625,0 4.471875,0 C5.0625,0 5.56875,0.0847457627 5.990625,0.169491525 C6.4125,0.338983051 6.834375,0.508474576 7.171875,0.847457627 L6.159375,1.94915254 C5.990625,1.77966102 5.7375,1.61016949 5.484375,1.52542373 C5.23125,1.44067797 4.89375,1.3559322 4.471875,1.3559322 C4.134375,1.3559322 3.88125,1.44067797 3.628125,1.52542373 C3.375,1.61016949 3.121875,1.77966102 2.953125,1.94915254 C2.784375,2.11864407 2.615625,2.37288136 2.53125,2.62711864 C2.446875,2.88135593 2.3625,3.13559322 2.3625,3.47457627 C2.3625,3.81355932 2.446875,4.06779661 2.53125,4.3220339 C2.615625,4.57627119 2.784375,4.83050847 2.953125,5 C3.121875,5.16949153 3.375,5.33898305 3.628125,5.42372881 C3.88125,5.50847458 4.21875,5.59322034 4.471875,5.59322034 C4.809375,5.59322034 5.0625,5.59322034 5.315625,5.50847458 C5.56875,5.42372881 5.7375,5.33898305 5.90625,5.25423729 L5.90625,4.15254237 L4.640625,4.15254237 L4.640625,2.79661017 L7.340625,2.79661017 C7.340625,2.79661017 7.340625,6.27118644 7.340625,6.27118644 Z" id="Path"></path>
                            <path d="M8.26875,0.169491525 L10.96875,0.169491525 C11.30625,0.169491525 11.64375,0.169491525 11.98125,0.254237288 C12.31875,0.338983051 12.571875,0.423728814 12.825,0.593220339 C13.078125,0.762711864 13.246875,0.93220339 13.415625,1.18644068 C13.584375,1.44067797 13.584375,1.77966102 13.584375,2.11864407 C13.584375,2.54237288 13.5,2.96610169 13.246875,3.30508475 C12.99375,3.6440678 12.65625,3.81355932 12.15,3.89830508 L13.921875,6.69491525 L12.065625,6.69491525 L10.63125,4.06779661 L9.871875,4.06779661 L9.871875,6.69491525 L8.353125,6.69491525 L8.353125,0.169491525 L8.26875,0.169491525 Z M9.7875,2.88135593 L10.715625,2.88135593 C10.884375,2.88135593 10.96875,2.88135593 11.1375,2.88135593 C11.30625,2.88135593 11.390625,2.88135593 11.559375,2.79661017 C11.64375,2.71186441 11.8125,2.71186441 11.896875,2.54237288 C11.98125,2.45762712 11.98125,2.28813559 11.98125,2.11864407 C11.98125,1.94915254 11.98125,1.77966102 11.896875,1.69491525 C11.8125,1.61016949 11.728125,1.52542373 11.64375,1.44067797 C11.559375,1.3559322 11.390625,1.3559322 11.30625,1.3559322 C11.1375,1.3559322 11.053125,1.3559322 10.884375,1.3559322 L9.871875,1.3559322 L9.871875,2.88135593 L9.7875,2.88135593 Z" id="Shape" fill-rule="nonzero"></path>
                            <path d="M19.996875,4.23728814 C19.996875,4.66101695 19.9125,5 19.828125,5.33898305 C19.74375,5.6779661 19.490625,5.93220339 19.321875,6.18644068 C19.06875,6.44067797 18.815625,6.61016949 18.39375,6.77966102 C17.971875,6.86440678 17.55,6.94915254 17.128125,6.94915254 C16.621875,6.94915254 16.2,6.86440678 15.8625,6.77966102 C15.525,6.61016949 15.1875,6.44067797 14.934375,6.18644068 C14.68125,5.93220339 14.5125,5.6779661 14.428125,5.33898305 C14.34375,5 14.259375,4.66101695 14.259375,4.23728814 L14.259375,0.169491525 L15.778125,0.169491525 L15.778125,4.15254237 C15.778125,4.3220339 15.778125,4.57627119 15.8625,4.74576271 C15.946875,4.91525424 16.03125,5.08474576 16.115625,5.16949153 C16.2,5.25423729 16.36875,5.42372881 16.5375,5.42372881 C16.70625,5.50847458 16.875,5.50847458 17.128125,5.50847458 C17.296875,5.50847458 17.55,5.50847458 17.71875,5.42372881 C17.8875,5.33898305 18.05625,5.25423729 18.140625,5.16949153 C18.225,5 18.39375,4.91525424 18.39375,4.74576271 C18.478125,4.57627119 18.478125,4.40677966 18.478125,4.15254237 L18.478125,0.169491525 L19.996875,0.169491525 C19.996875,0.169491525 19.996875,4.23728814 19.996875,4.23728814 Z" id="Path"></path>
                            <path d="M21.009375,0.169491525 L23.540625,0.169491525 C23.878125,0.169491525 24.215625,0.169491525 24.553125,0.254237288 C24.890625,0.338983051 25.14375,0.423728814 25.396875,0.593220339 C25.65,0.762711864 25.81875,0.93220339 25.9875,1.18644068 C26.15625,1.44067797 26.15625,1.77966102 26.15625,2.11864407 C26.15625,2.54237288 26.071875,2.79661017 25.9875,3.05084746 C25.81875,3.30508475 25.65,3.55932203 25.48125,3.6440678 C25.228125,3.81355932 24.975,3.89830508 24.6375,3.98305085 C24.3,4.06779661 23.9625,4.06779661 23.625,4.06779661 L22.528125,4.06779661 L22.528125,6.61016949 L21.009375,6.61016949 C21.009375,6.61016949 21.009375,0.169491525 21.009375,0.169491525 Z M22.528125,2.96610169 L23.540625,2.96610169 C23.709375,2.96610169 23.79375,2.96610169 23.9625,2.96610169 C24.046875,2.96610169 24.215625,2.88135593 24.3,2.88135593 C24.384375,2.79661017 24.46875,2.71186441 24.553125,2.62711864 C24.6375,2.54237288 24.6375,2.37288136 24.6375,2.20338983 C24.6375,2.03389831 24.6375,1.86440678 24.553125,1.77966102 C24.46875,1.69491525 24.384375,1.61016949 24.215625,1.52542373 C24.046875,1.44067797 23.9625,1.44067797 23.79375,1.44067797 C23.625,1.44067797 23.45625,1.44067797 23.371875,1.44067797 L22.6125,1.44067797 L22.528125,2.96610169 Z" id="Shape" fill-rule="nonzero"></path>
                            <path d="M26.746875,3.47457627 C26.746875,2.96610169 26.83125,2.45762712 27,2.03389831 C27.16875,1.61016949 27.421875,1.27118644 27.759375,0.93220339 C28.096875,0.593220339 28.51875,0.423728814 28.940625,0.254237288 C29.3625,0.0847457627 29.86875,0 30.459375,0 C30.965625,0 31.471875,0.0847457627 31.978125,0.254237288 C32.4,0.423728814 32.821875,0.677966102 33.159375,0.93220339 C33.496875,1.27118644 33.75,1.61016949 33.91875,2.03389831 C34.0875,2.45762712 34.171875,2.96610169 34.171875,3.47457627 C34.171875,3.98305085 34.0875,4.49152542 33.91875,4.91525424 C33.75,5.33898305 33.496875,5.6779661 33.159375,6.01694915 C32.821875,6.3559322 32.4,6.52542373 31.978125,6.69491525 C31.55625,6.86440678 31.05,6.94915254 30.459375,6.94915254 C29.953125,6.94915254 29.446875,6.86440678 28.940625,6.69491525 C28.51875,6.52542373 28.096875,6.27118644 27.759375,6.01694915 C27.421875,5.6779661 27.16875,5.33898305 27,4.91525424 C26.83125,4.49152542 26.746875,3.98305085 26.746875,3.47457627 M28.35,3.47457627 C28.35,3.81355932 28.434375,4.06779661 28.51875,4.3220339 C28.603125,4.57627119 28.771875,4.83050847 28.940625,5 C29.109375,5.16949153 29.3625,5.33898305 29.615625,5.42372881 C29.86875,5.50847458 30.20625,5.59322034 30.459375,5.59322034 C30.796875,5.59322034 31.05,5.50847458 31.303125,5.42372881 C31.55625,5.33898305 31.809375,5.16949153 31.978125,5 C32.146875,4.83050847 32.315625,4.57627119 32.4,4.3220339 C32.484375,4.06779661 32.56875,3.81355932 32.56875,3.47457627 C32.56875,3.13559322 32.484375,2.88135593 32.4,2.62711864 C32.315625,2.37288136 32.146875,2.11864407 31.978125,1.94915254 C31.809375,1.77966102 31.55625,1.61016949 31.303125,1.52542373 C31.05,1.44067797 30.7125,1.3559322 30.459375,1.3559322 C30.121875,1.3559322 29.86875,1.44067797 29.615625,1.52542373 C29.3625,1.61016949 29.109375,1.77966102 28.940625,1.94915254 C28.771875,2.11864407 28.603125,2.37288136 28.51875,2.62711864 C28.35,2.88135593 28.35,3.13559322 28.35,3.47457627" id="Shape" fill-rule="nonzero"></path>
                        </g>
                        <path d="M102.515625,46.779661 C102.515625,46.440678 102.6,46.1864407 102.684375,45.9322034 C102.76875,45.6779661 102.9375,45.4237288 103.190625,45.2542373 C103.359375,45.0847458 103.6125,44.9152542 103.865625,44.7457627 C104.11875,44.6610169 104.45625,44.5762712 104.709375,44.5762712 C105.046875,44.5762712 105.3,44.6610169 105.553125,44.7457627 C105.80625,44.8305085 106.059375,45 106.228125,45.1694915 C106.396875,45.3389831 106.565625,45.5932203 106.734375,45.8474576 C106.81875,46.1016949 106.903125,46.440678 106.903125,46.6949153 C106.903125,47.0338983 106.81875,47.2881356 106.734375,47.5423729 C106.65,47.7966102 106.48125,48.0508475 106.228125,48.220339 C106.059375,48.3898305 105.80625,48.559322 105.553125,48.7288136 C105.3,48.8135593 104.9625,48.8983051 104.709375,48.8983051 C104.371875,48.8983051 104.11875,48.8135593 103.865625,48.7288136 C103.6125,48.6440678 103.359375,48.4745763 103.190625,48.3050847 C103.021875,48.1355932 102.853125,47.8813559 102.684375,47.6271186 C102.6,47.3728814 102.515625,47.1186441 102.515625,46.779661 Z M102.9,46.75 C102.9,46.9913043 102.980435,47.2326087 103.06087,47.473913 C103.141304,47.7152174 103.302174,47.876087 103.463043,48.0369565 C103.623913,48.1978261 103.784783,48.3586957 104.026087,48.4391304 C104.267391,48.5195652 104.508696,48.6 104.75,48.6 C104.991304,48.6 105.232609,48.5195652 105.473913,48.4391304 C105.715217,48.3586957 105.876087,48.1978261 106.036957,48.0369565 C106.197826,47.876087 106.358696,47.7152174 106.43913,47.473913 C106.519565,47.2326087 106.6,46.9913043 106.6,46.75 C106.6,46.5086957 106.519565,46.2673913 106.43913,46.026087 C106.358696,45.7847826 106.197826,45.623913 106.036957,45.4630435 C105.876087,45.3021739 105.715217,45.1413043 105.473913,45.0608696 C105.232609,44.9804348 104.991304,44.9 104.75,44.9 C104.508696,44.9 104.267391,44.9804348 104.026087,45.0608696 C103.784783,45.1413043 103.623913,45.3021739 103.463043,45.4630435 C103.302174,45.623913 103.141304,45.7847826 103.06087,46.026087 C102.9,46.2673913 102.9,46.5086957 102.9,46.75 Z M103.95,45.5084746 L104.878125,45.5084746 C105.215625,45.5084746 105.384375,45.5932203 105.553125,45.6779661 C105.721875,45.7627119 105.80625,46.0169492 105.80625,46.2711864 C105.80625,46.5254237 105.721875,46.6949153 105.6375,46.779661 C105.46875,46.8644068 105.384375,46.9491525 105.13125,46.9491525 L105.890625,48.0508475 L105.46875,48.0508475 L104.79375,46.9491525 L104.371875,46.9491525 L104.371875,48.0508475 L104.034375,48.0508475 L104.034375,45.5084746 L103.95,45.5084746 Z M104.2875,46.6949153 L104.709375,46.6949153 C104.79375,46.6949153 104.878125,46.6949153 104.9625,46.6949153 C105.046875,46.6949153 105.13125,46.6949153 105.215625,46.6101695 C105.3,46.6101695 105.3,46.5254237 105.384375,46.5254237 C105.384375,46.440678 105.46875,46.3559322 105.46875,46.2711864 C105.46875,46.1864407 105.46875,46.1016949 105.384375,46.0169492 C105.384375,45.9322034 105.3,45.9322034 105.215625,45.9322034 C105.13125,45.9322034 105.13125,45.8474576 105.046875,45.8474576 C104.9625,45.8474576 104.878125,45.8474576 104.878125,45.8474576 L104.2875,45.8474576 L104.2875,46.6949153 Z" id="Shape" fill="#9DA8BC" fill-rule="nonzero"></path>
                    </g>
                </g>
            </g>
        </g>
    </g>
</svg>